<svg class="icon" viewBox="0 0 1024 1024" xmlns="http://www.w3.org/2000/svg" width="200" height="200"><path d="M512 818.424c-64.388 0-116.364 20.946-116.364 46.546S447.612 911.515 512 911.515s116.364-20.945 116.364-46.545S576.388 818.424 512 818.424zm0-77.576c-163.685 0-287.03 53.528-287.03 124.122S348.315 989.09 512 989.09s287.03-53.526 287.03-124.12S675.685 740.848 512 740.848zm0 217.213c-150.497 0-256-48.873-256-93.091s105.503-93.091 256-93.091 256 48.873 256 93.09-105.503 93.092-256 93.092z" fill="#FFC92D"/><path d="M512 3.879c171.442 0 310.303 138.86 310.303 310.303S512.776 864.97 512 864.97 201.697 485.624 201.697 314.182 340.557 3.879 512 3.879z" fill="#094B5E"/><path d="M356.848 314.182a155.152 155.152 0 10310.304 0 155.152 155.152 0 10-310.304 0z" fill="#FFC92D"/></svg>