<svg t="1604906750747" class="icon" viewBox="0 0 1024 1024" version="1.1" xmlns="http://www.w3.org/2000/svg" p-id="22630" width="200" height="200"><path d="M512 818.424242c-64.387879 0-116.363636 20.945455-116.363636 46.545455s51.975758 46.545455 116.363636 46.545455 116.363636-20.945455 116.363636-46.545455-51.975758-46.545455-116.363636-46.545455z m0-77.575757c-163.684848 0-287.030303 53.527273-287.030303 124.121212s123.345455 124.121212 287.030303 124.121212 287.030303-53.527273 287.030303-124.121212-123.345455-124.121212-287.030303-124.121212z m0 217.212121c-150.49697 0-256-48.872727-256-93.090909s105.50303-93.090909 256-93.090909 256 48.872727 256 93.090909-105.50303 93.090909-256 93.090909z" fill="#FFC92D" p-id="22631"></path><path d="M512 3.878788c171.442424 0 310.30303 138.860606 310.30303 310.30303s-309.527273 550.787879-310.30303 550.787879-310.30303-379.345455-310.30303-550.787879 138.860606-310.30303 310.30303-310.30303z" fill="#094B5E" p-id="22632"></path><path d="M512 314.181818m-155.151515 0a155.151515 155.151515 0 1 0 310.30303 0 155.151515 155.151515 0 1 0-310.30303 0Z" fill="#FFC92D" p-id="22633"></path></svg>