<?xml version="1.0" standalone="no"?><!DOCTYPE svg PUBLIC "-//W3C//DTD SVG 1.1//EN" "http://www.w3.org/Graphics/SVG/1.1/DTD/svg11.dtd"><svg t="1598951724266" class="icon" viewBox="0 0 1024 1024" version="1.1" xmlns="http://www.w3.org/2000/svg" p-id="1718" xmlns:xlink="http://www.w3.org/1999/xlink" width="200" height="200"><defs><style type="text/css"></style></defs><path d="M947.93351 255.639285c16.063496 0 29.06104-12.998035 29.06104-29.059849L976.99455 73.015967c0-16.062837-12.997545-29.060873-29.06104-29.060873L794.334073 43.955094c-16.034842 0-29.060017 12.998035-29.060017 29.060873L765.274056 120.750131l-94.33837 0c-2.937009-0.451278-5.928256-0.451278-8.864241 0L258.72799 120.750131 258.72799 73.015967c0-16.062837-13.027222-29.060873-29.062063-29.060873L76.067513 43.955094c-16.063496 0-29.062063 12.998035-29.062063 29.060873l0 153.563468c0 16.062837 12.998568 29.059849 29.062063 29.059849l47.737143 0 0 506.581594L76.067513 762.220878c-16.063496 0-29.062063 12.997012-29.062063 29.059849l0 153.563468c0 16.062837 12.998568 29.059849 29.062063 29.059849l153.598414 0c16.034842 0 29.062063-12.997012 29.062063-29.059849l0-47.735188 506.545043 0 0 47.735188c0 16.062837 13.026198 29.059849 29.060017 29.059849l153.599437 0c16.063496 0 29.06104-12.997012 29.06104-29.059849L976.993527 791.281751c0-16.062837-12.997545-29.059849-29.06104-29.059849l-47.737143 0L900.195344 354.582761c0.050144-0.984421 0.050144-1.970888 0-2.955308l0-95.988168L947.93351 255.639285zM823.39716 102.07684l95.473264 0 0 95.441723-95.473264 0L823.39716 102.07684zM181.928783 459.920878c1.707968-1.102101 3.328951-2.394537 4.825086-3.89061l277.168724-277.158391 132.079449 0L181.928783 592.929194 181.928783 459.920878zM105.129576 102.07684l95.473264 0 0 46.62797c-0.014327 0.367367-0.02763 0.734734-0.02763 1.106194s0.014327 0.738827 0.02763 1.106194l0 46.601364-95.473264 0L105.129576 102.07684zM229.665927 255.639285c16.034842 0 29.062063-12.998035 29.062063-29.059849l0-47.707558 123.003375 0L181.928783 378.666272 181.928783 255.639285 229.665927 255.639285zM181.928783 675.116031l496.265511-496.244154 87.079762 0 0 35.606962L217.509574 762.220878l-35.580791 0L181.928783 675.116031zM105.129576 915.784346l0-95.441723 95.473264 0 0 46.600341c-0.014327 0.367367-0.02763 0.735757-0.02763 1.106194s0.014327 0.738827 0.02763 1.106194l0 46.62797L105.129576 915.783323zM842.071217 553.748846 563.784997 832.022641c-2.10912 2.109034-3.823229 4.460592-5.148464 6.965645L426.365717 838.988286l415.7055-415.688467L842.071217 553.748846zM918.870424 915.784346l-95.473264 0 0-95.441723 95.473264 0L918.870424 915.784346zM794.334073 762.220878c-16.034842 0-29.060017 12.997012-29.060017 29.059849l0 47.706535L639.011318 838.987263l203.060922-203.051579 0 126.284171L794.334073 762.219855zM842.071217 341.111958 344.174489 838.988286l-85.446499 0 0-35.795251 547.576186-547.552727 35.76704 0L842.071217 341.111958z" p-id="1719" fill=""></path></svg>
