<svg t="1604978444539" class="icon" viewBox="0 0 1024 1024" version="1.1" xmlns="http://www.w3.org/2000/svg" p-id="2927" width="200" height="200"><path d="M31.030303 15.515152 31.030303 15.515152 31.030303 15.515152ZM739.886545 920.234667q-36.864 0-123.159273 30.068364t-120.242424 30.068364q-37.825939 0-124.121212-30.068364t-117.325576-30.068364q-18.432 0-40.246303 5.833697t-35.405576 11.139879-34.909091 15.018667q-12.598303 5.833697-18.432 8.254061t-15.018667 5.337212-13.094788 2.916848q-3.878788-0.961939-6.795636-2.916848-3.878788-1.954909-4.375273-8.254061t1.458424-16.011636 5.833697-24.234667l10.674424-31.992242q5.833697-17.470061 12.598303-38.787879 14.553212-41.704727 27.648-79.530667t23.769212-72.73503q11.636364-34.909091 18.432-56.257939l7.757576-20.355879 726.295273 0q35.87103 201.69697 51.386182 304.500364 1.954909 13.591273 1.954909 23.272727 0 4.840727-0.496485 8.254061t-0.961939 6.299152-2.420364 5.337212-3.878788 3.382303q-5.833697 1.954909-9.712485 2.916848-1.954909 0.961939-5.337212 0.496485t-8.254061-1.954909-8.719515-2.916848-7.757576-2.420364q-6.795636-2.916848-21.348848-7.757576-28.113455-11.636364-46.545455-17.470061-5.833697-1.954909-13.591273-3.878788t-17.470061-3.878788-21.348848-4.840727q-4.840727-0.961939-9.712485-1.458424t-9.712485-1.458424-9.712485-0.961939l-9.712485-1.954909-9.216 0t-9.216-0.496485-9.712485-0.496485zM861.090909 557.583515l-606.052848 0q-24.234667 0-42.170182-17.935515t-17.935515-43.163152q25.227636-33.947152 81.454545-121.204364 45.583515-61.098667 99.886545-61.098667l90.174061 0 30.068364-242.439758 14.553212-17.470061q8.719515-9.712485 32.488727-26.189576t44.125091-16.477091 43.628606 14.553212q5.833697 3.878788 10.674424 7.757576t9.216 7.757576 8.254061 7.261091 6.795636 7.261091l12.598303 15.515152-30.068364 242.439758 89.212121 0q25.227636 0 54.30303 16.973576t49.462303 48.003879q56.257939 86.295273 79.530667 117.325576 0 27.151515-17.935515 44.125091t-42.170182 16.973576z" p-id="2928"></path></svg>