<svg class="icon" viewBox="0 0 1024 1024" xmlns="http://www.w3.org/2000/svg" width="200" height="200"><path d="M31.03 15.515zm708.857 904.72q-36.864 0-123.16 30.068t-120.242 30.068q-37.826 0-124.121-30.068t-117.326-30.068q-18.432 0-40.246 5.833t-35.406 11.14-34.909 15.019q-12.598 5.834-18.432 8.254t-15.019 5.337-13.094 2.917q-3.88-.962-6.796-2.917-3.879-1.955-4.375-8.254t1.458-16.012 5.834-24.234l10.674-31.992q5.834-17.47 12.599-38.788 14.553-41.705 27.648-79.531t23.769-72.735q11.636-34.91 18.432-56.258l7.757-20.356h726.296q35.87 201.697 51.386 304.5 1.955 13.592 1.955 23.273 0 4.841-.497 8.254t-.962 6.3-2.42 5.337-3.879 3.382q-5.834 1.955-9.712 2.917-1.955.962-5.338.496t-8.254-1.955-8.72-2.916-7.757-2.42q-6.795-2.918-21.349-7.758-28.113-11.637-46.545-17.47-5.834-1.955-13.591-3.88t-17.47-3.878-21.35-4.84q-4.84-.963-9.712-1.46t-9.712-1.458-9.713-.962l-9.712-1.954h-9.216l-9.216-.497-9.713-.496zM861.09 557.584H255.038q-24.235 0-42.17-17.936t-17.936-43.163q25.228-33.947 81.455-121.205 45.583-61.098 99.886-61.098h90.175l30.068-242.44 14.553-17.47q8.72-9.712 32.489-26.19t44.125-16.477 43.629 14.554q5.833 3.878 10.674 7.757t9.216 7.758 8.254 7.26 6.796 7.262L678.85 71.71l-30.068 242.44h89.212q25.227 0 54.303 16.973t49.462 48.004q56.258 86.296 79.53 117.326 0 27.151-17.935 44.125t-42.17 16.973z"/></svg>