<svg t="1602842121910" class="icon" viewBox="0 0 1024 1024" version="1.1" xmlns="http://www.w3.org/2000/svg" p-id="3388" width="200" height="200"><path d="M0 512c0 282.624 229.376 512 512 512s512-229.376 512-512-229.376-512-512-512-512 229.376-512 512z" fill="#FFFFFF" opacity=".589" p-id="3389"></path><path d="M722.432 310.784a29.44 29.44 0 0 1 0 40.448l-361.984 361.984a29.44 29.44 0 0 1-40.448 0 29.44 29.44 0 0 1 0-40.448l361.984-361.984a29.44 29.44 0 0 1 40.448 0z" fill="#495060" p-id="3390"></path><path d="M320.512 310.784a29.44 29.44 0 0 1 40.448 0l361.984 361.984a29.44 29.44 0 0 1 0 40.448 29.44 29.44 0 0 1-40.448 0L320.512 351.232a29.44 29.44 0 0 1 0-40.448z" fill="#495060" p-id="3391"></path></svg>