<svg class="icon" viewBox="0 0 1024 1024" xmlns="http://www.w3.org/2000/svg" width="200" height="200"><path d="M0 512c0 282.624 229.376 512 512 512s512-229.376 512-512S794.624 0 512 0 0 229.376 0 512z" fill="#FFF" opacity=".589"/><path d="M722.432 310.784a29.44 29.44 0 010 40.448L360.448 713.216a29.44 29.44 0 01-40.448 0 29.44 29.44 0 010-40.448l361.984-361.984a29.44 29.44 0 0140.448 0z" fill="#495060"/><path d="M320.512 310.784a29.44 29.44 0 0140.448 0l361.984 361.984a29.44 29.44 0 010 40.448 29.44 29.44 0 01-40.448 0L320.512 351.232a29.44 29.44 0 010-40.448z" fill="#495060"/></svg>