<svg t="1602829820220" class="icon" viewBox="0 0 1024 1024" version="1.1" xmlns="http://www.w3.org/2000/svg" p-id="17538" width="200" height="200"><path d="M1005.375279 374.441815C951.61874 181.814216 790.349121 37.183526 595.161686 6.465504 426.212563-19.772807 262.383109 34.623691 144.630689 155.575905 26.87827 276.528119-22.398558 442.277448 9.599382 610.586613c37.757569 200.947064 198.387229 362.856641 399.974252 403.174046 26.238311 5.11967 52.476622 8.319464 78.714932 9.599382h9.599382c58.236251 0 115.192584-24.958393 153.590113-68.475592 37.757569-42.237281 54.396498-97.273738 45.437075-151.670236-3.199794-17.918846-1.919876-36.477652 3.199794-55.036457 10.239341-39.037487 42.237281-71.675386 81.274768-83.194644 17.278888-5.11967 34.557775-7.039547 51.836663-5.119671 53.116581 5.759629 104.313285-10.8793 140.790937-46.077033 34.557775-31.99794 51.836663-76.155098 49.916786-123.512049a559.963952 559.963952 0 0 0-18.558805-115.832544zM418.533057 175.414628c39.037487 0 71.035427 31.99794 71.035427 71.035427 0 39.037487-31.99794 71.035427-71.035427 71.035427s-71.035427-31.99794-71.035427-71.035427c0-39.037487 31.99794-71.035427 71.035427-71.035427zM181.108341 416.039137c0-39.037487 31.99794-71.035427 71.035427-71.035427 39.037487 0 71.035427 31.99794 71.035427 71.035427 0 39.037487-31.99794 71.035427-71.035427 71.035428A71.675386 71.675386 0 0 1 181.108341 416.039137z m237.424716 435.811945c-66.555715 0-120.312255-53.756539-120.312255-120.312255s53.756539-120.312255 120.312255-120.312255 120.312255 53.756539 120.312255 120.312255-53.756539 120.312255-120.312255 120.312255z m218.225952-534.3656c-39.037487 0-71.035427-31.99794-71.035427-71.035427 0-39.037487 31.99794-71.035427 71.035427-71.035427 39.037487 0 71.035427 31.99794 71.035427 71.035427-0.639959 39.037487-31.99794 71.035427-71.035427 71.035427zM787.149327 486.434606c-39.037487 0-71.035427-31.99794-71.035427-71.035427 0-39.037487 31.99794-71.035427 71.035427-71.035427 39.037487 0 71.035427 31.99794 71.035427 71.035427-0.639959 39.677446-31.99794 71.035427-71.035427 71.035427z" p-id="17539"></path></svg>