<svg class="icon" viewBox="0 0 1024 1024" xmlns="http://www.w3.org/2000/svg" width="200" height="200"><path d="M1005.375 374.442C951.62 181.814 790.35 37.184 595.162 6.466c-168.95-26.239-332.779 28.158-450.531 149.11C26.878 276.528-22.4 442.277 9.599 610.586c37.758 200.948 198.388 362.857 399.975 403.175 26.238 5.12 52.476 8.32 78.715 9.599h9.599c58.236 0 115.193-24.958 153.59-68.476 37.758-42.237 54.397-97.273 45.437-151.67-3.2-17.919-1.92-36.477 3.2-55.036 10.24-39.038 42.237-71.676 81.275-83.195 17.279-5.12 34.557-7.04 51.836-5.12 53.117 5.76 104.314-10.879 140.791-46.077 34.558-31.998 51.837-76.155 49.917-123.512a559.964 559.964 0 00-18.559-115.832zM418.533 175.415c39.038 0 71.035 31.998 71.035 71.035 0 39.038-31.997 71.035-71.035 71.035s-71.035-31.997-71.035-71.035c0-39.037 31.998-71.035 71.035-71.035zM181.108 416.039c0-39.037 31.998-71.035 71.036-71.035 39.037 0 71.035 31.998 71.035 71.035 0 39.038-31.998 71.036-71.035 71.036a71.675 71.675 0 01-71.036-71.036zm237.425 435.812c-66.556 0-120.312-53.756-120.312-120.312s53.756-120.312 120.312-120.312 120.312 53.756 120.312 120.312S485.09 851.85 418.533 851.85zM636.76 317.485c-39.037 0-71.035-31.997-71.035-71.035 0-39.037 31.998-71.035 71.035-71.035 39.037 0 71.035 31.998 71.035 71.035-.64 39.038-31.998 71.035-71.035 71.035zm150.39 168.95c-39.037 0-71.035-31.998-71.035-71.036 0-39.037 31.998-71.035 71.035-71.035 39.038 0 71.036 31.998 71.036 71.035-.64 39.678-31.998 71.036-71.036 71.036z"/></svg>