<svg class="icon" viewBox="0 0 1024 1024" xmlns="http://www.w3.org/2000/svg" width="200" height="200"><path d="M937.6 251.3L538 69.7c-11.5-5.1-24.6-5.1-36.1 0L102.4 251.3c-22.4 9.9-32.5 32.2-22.6 54.6 4.5 10.1 12.5 15.1 22.6 19.6L502 506.1c11.5 5.1 24.6 5.1 36.1 0l399.6-180.6c22.4-9.9 32.5-33.2 22.6-55.6-4.6-10.1-12.6-14.1-22.7-18.6zm-440 472.1l-398.7-165c-18.4-7.6-27.1-28.7-19.5-47 7.6-18.4 28.7-27.1 47-19.5l398.7 165c18.4 7.6 27.1 28.7 19.5 47-7.6 18.3-28.6 27.1-47 19.5z"/><path d="M526.4 723.4l398.7-165c18.4-7.6 27.1-28.7 19.5-47-7.6-18.4-28.7-27.1-47-19.5l-398.7 165c-18.4 7.6-27.1 28.7-19.5 47 7.6 18.3 28.6 27.1 47 19.5zM497.6 955.4l-398.7-165c-18.4-7.6-27.1-28.7-19.5-47 7.6-18.4 28.7-27.1 47-19.5l398.7 165c18.4 7.6 27.1 28.7 19.5 47-7.6 18.3-28.6 27.1-47 19.5z"/><path d="M526.4 955.4l398.7-165c18.4-7.6 27.1-28.7 19.5-47-7.6-18.4-28.7-27.1-47-19.5l-398.7 165c-18.4 7.6-27.1 28.7-19.5 47 7.6 18.3 28.6 27.1 47 19.5z"/></svg>