<svg class="icon" viewBox="0 0 1025 1024" xmlns="http://www.w3.org/2000/svg" width="32" height="32"><path d="M219.502 658.286q0-30.281-21.431-51.712t-51.712-21.431-51.712 21.43-21.431 51.713 21.43 51.712 51.713 21.43 51.712-21.43 21.43-51.712zm109.714-256q0-30.281-21.43-51.712t-51.713-21.431-51.712 21.43-21.43 51.713 21.43 51.712 51.712 21.43 51.712-21.43 21.431-51.712zm244.59 274.87l57.71-218.258q3.437-14.848-4.316-27.72t-22.016-16.824-27.429 3.73-17.115 22.602l-57.71 218.258q-34.304 2.853-61.147 24.869t-35.986 56.32q-11.41 44.032 11.41 83.456t66.852 50.834 83.456-11.41 50.835-66.853q9.143-34.304-3.438-66.853t-41.18-52.004zm377.124-18.87q0-30.281-21.43-51.712t-51.713-21.431-51.712 21.43-21.43 51.713 21.43 51.712 51.712 21.43 51.712-21.43 21.431-51.712zM585.216 292.57q0-30.28-21.43-51.712t-51.713-21.43-51.712 21.43-21.43 51.712 21.43 51.712 51.712 21.431 51.712-21.43 21.431-51.713zm256 109.715q0-30.281-21.43-51.712t-51.713-21.431-51.712 21.43-21.43 51.713 21.43 51.712 51.712 21.43 51.712-21.43 21.431-51.712zm182.857 256q0 149.138-80.603 275.968-10.825 16.603-30.867 16.603H111.47q-19.968 0-30.867-16.603Q0 807.936 0 658.286q0-104.01 40.594-198.876t109.13-163.4 163.4-109.13T512 146.286t198.875 40.594 163.402 109.13 109.129 163.4T1024 658.286z"/></svg>