<svg t="1603962918258" class="icon" viewBox="0 0 1024 1024" version="1.1" xmlns="http://www.w3.org/2000/svg" p-id="20346" width="200" height="200"><path d="M825.6 599.466667L746.666667 520.533333c-2.133333-2.133333-4.266667-6.4-4.266667-10.666666v-113.066667c0-8.533333-6.4-14.933333-14.933333-14.933333h-113.066667c-4.266667 0-8.533333-2.133333-10.666667-4.266667L522.666667 298.666667h-2.133334v-78.933334h-19.2V298.666667h-2.133333l-78.933333 78.933333c-2.133333 2.133333-6.4 4.266667-10.666667 4.266667H298.666667c-8.533333 0-14.933333 6.4-14.933334 14.933333v113.066667c0 4.266667-2.133333 8.533333-4.266666 10.666666l-78.933334 78.933334c-6.4 6.4-6.4 14.933333 0 21.333333l78.933334 78.933333c2.133333 2.133333 4.266667 6.4 4.266666 10.666667v113.066667c0 8.533333 6.4 14.933333 14.933334 14.933333h113.066666c4.266667 0 8.533333 2.133333 10.666667 4.266667l78.933333 78.933333c6.4 6.4 14.933333 6.4 21.333334 0l78.933333-78.933333c2.133333-2.133333 6.4-4.266667 10.666667-4.266667H725.333333c8.533333 0 14.933333-6.4 14.933334-14.933333v-113.066667c0-4.266667 2.133333-8.533333 4.266666-10.666667l78.933334-78.933333c6.4-6.4 6.4-14.933333 2.133333-21.333333z" fill="#B4CAD3" p-id="20347"></path><path d="M682.666667 541.866667c-38.4-93.866667-145.066667-138.666667-238.933334-102.4-93.866667 38.4-138.666667 145.066667-102.4 238.933333 38.4 93.866667 145.066667 138.666667 238.933334 102.4 96-38.4 140.8-145.066667 102.4-238.933333z m-38.4 32l-64 55.466666c-2.133333 2.133333-2.133333 4.266667-2.133334 6.4l19.2 83.2c2.133333 4.266667-4.266667 8.533333-8.533333 6.4l-72.533333-44.8c-2.133333-2.133333-4.266667-2.133333-6.4 0L435.2 725.333333c-4.266667 2.133333-10.666667-2.133333-8.533333-6.4l19.2-83.2c0-2.133333 0-4.266667-2.133334-6.4l-64-55.466666c-4.266667-4.266667-2.133333-8.533333 4.266667-10.666667l85.333333-6.4c2.133333 0 4.266667-2.133333 4.266667-4.266667l34.133333-78.933333c2.133333-4.266667 8.533333-4.266667 10.666667 0l34.133333 78.933333c0 2.133333 2.133333 4.266667 4.266667 4.266667l85.333333 6.4c4.266667 0 6.4 6.4 2.133334 10.666667z" fill="#8DA9B7" p-id="20348"></path><path d="M426.666667 96h168.533333v136.533333H426.666667zM633.6 96h138.666667v136.533333h-138.666667zM251.733333 96h138.666667v136.533333h-138.666667z" fill="#AECADE" p-id="20349"></path></svg>