<svg class="icon" viewBox="0 0 1024 1024" xmlns="http://www.w3.org/2000/svg" width="200" height="200"><path d="M825.6 599.467l-78.933-78.934c-2.134-2.133-4.267-6.4-4.267-10.666V396.8c0-8.533-6.4-14.933-14.933-14.933H614.4c-4.267 0-8.533-2.134-10.667-4.267l-81.066-78.933h-2.134v-78.934h-19.2v78.934H499.2L420.267 377.6c-2.134 2.133-6.4 4.267-10.667 4.267H298.667c-8.534 0-14.934 6.4-14.934 14.933v113.067c0 4.266-2.133 8.533-4.266 10.666l-78.934 78.934c-6.4 6.4-6.4 14.933 0 21.333l78.934 78.933c2.133 2.134 4.266 6.4 4.266 10.667v113.067c0 8.533 6.4 14.933 14.934 14.933h113.066c4.267 0 8.534 2.133 10.667 4.267l78.933 78.933c6.4 6.4 14.934 6.4 21.334 0l78.933-78.933c2.133-2.134 6.4-4.267 10.667-4.267h113.066c8.534 0 14.934-6.4 14.934-14.933V710.4c0-4.267 2.133-8.533 4.266-10.667l78.934-78.933c6.4-6.4 6.4-14.933 2.133-21.333z" fill="#B4CAD3"/><path d="M682.667 541.867C644.267 448 537.6 403.2 443.733 439.467c-93.866 38.4-138.666 145.066-102.4 238.933 38.4 93.867 145.067 138.667 238.934 102.4 96-38.4 140.8-145.067 102.4-238.933zm-38.4 32l-64 55.466c-2.134 2.134-2.134 4.267-2.134 6.4l19.2 83.2c2.134 4.267-4.266 8.534-8.533 6.4l-72.533-44.8c-2.134-2.133-4.267-2.133-6.4 0l-74.667 44.8c-4.267 2.134-10.667-2.133-8.533-6.4l19.2-83.2c0-2.133 0-4.266-2.134-6.4l-64-55.466c-4.266-4.267-2.133-8.534 4.267-10.667l85.333-6.4c2.134 0 4.267-2.133 4.267-4.267l34.133-78.933c2.134-4.267 8.534-4.267 10.667 0l34.133 78.933c0 2.134 2.134 4.267 4.267 4.267l85.333 6.4c4.267 0 6.4 6.4 2.134 10.667z" fill="#8DA9B7"/><path d="M426.667 96H595.2v136.533H426.667zM633.6 96h138.667v136.533H633.6zm-381.867 0H390.4v136.533H251.733z" fill="#AECADE"/></svg>