<svg class="icon" width="200" height="200" viewBox="0 0 1024 1024" xmlns="http://www.w3.org/2000/svg"><path d="M780.8 915.2l-160-12.8L512 1024 403.2 902.4l-160 6.4 12.8-160L128 640l121.6-108.8-6.4-160 160 12.8L512 262.4 620.8 384l160-6.4-12.8 160 121.6 108.8L768 755.2l12.8 160zm0 0" fill="#F1CB8D"/><path d="M518.4 448c108.8 0 198.4 89.6 198.4 198.4 0 108.8-89.6 198.4-198.4 198.4-108.8 0-198.4-89.6-198.4-198.4 0-51.2 19.2-102.4 57.6-134.4 38.4-38.4 89.6-64 140.8-64zm0 0" fill="#D2B079"/><path d="M614.4 787.2l-89.6-25.6-89.6 25.6-6.4-96-51.2-76.8 89.6-32 57.6-76.8 57.6 76.8 89.6 32-51.2 76.8-6.4 96zm-128-652.8h51.2V320h-51.2z" fill="#F1CB8D"/><path d="M300.8 0H704v185.6H300.8z" fill="#D2B079"/><path d="M352 0h51.2v185.6H352zm249.6 0h51.2v185.6h-51.2z" fill="#FFF"/></svg>