<?xml version="1.0" standalone="no"?><!DOCTYPE svg PUBLIC "-//W3C//DTD SVG 1.1//EN" "http://www.w3.org/Graphics/SVG/1.1/DTD/svg11.dtd"><svg t="1598951567632" class="icon" viewBox="0 0 1024 1024" version="1.1" xmlns="http://www.w3.org/2000/svg" p-id="819" xmlns:xlink="http://www.w3.org/1999/xlink" width="200" height="200"><defs><style type="text/css"></style></defs><path d="M171.240049 718.68079l137.569214 137.58343 56.835973-56.835974-137.583429-137.583429 74.86199-74.86199 136.275548 136.275548 56.835973-56.835974-136.275548-136.275548 73.411948-73.397731 188.44864 188.44864 56.835973-56.835973-188.44864-188.44864 74.193833-74.193834 135.792201 135.777985 56.835973-56.835974-135.7922-135.777984 72.075634-72.075634L874.453721 378.148297l56.835974-56.835973L749.949105 139.971734l83.135761-83.135761L776.248893 0 7.925477 768.323416l56.835973 56.835974 106.478599-106.4786zM860.138107 868.063584v35.11377H163.861893v-35.11377H7.925477v155.936416h155.936416V988.872013h696.276214v35.127987h155.936416V868.063584H860.138107z" p-id="820" fill=""></path></svg>
