<svg class="icon" viewBox="0 0 1024 1024" xmlns="http://www.w3.org/2000/svg" width="200" height="200"><defs><style/></defs><path d="M171.24 718.68l137.57 137.584 56.835-56.836-137.583-137.583 74.862-74.862 136.275 136.275 56.836-56.836L359.76 530.147l73.412-73.398L621.62 645.198l56.836-56.836-188.448-188.449 74.194-74.194 135.792 135.778 56.836-56.836-135.793-135.778 72.076-72.075 181.34 181.34 56.837-56.836-181.34-181.34 83.135-83.136L776.249 0 7.925 768.323l56.836 56.836L171.24 718.681zm688.898 149.384v35.113H163.862v-35.113H7.925V1024h155.937v-35.128h696.276V1024h155.937V868.064H860.138z"/></svg>