<svg class="icon" width="200" height="200" viewBox="0 0 1024 1024" xmlns="http://www.w3.org/2000/svg"><path d="M570.959 281.876l84.677 84.716h119.886a39.385 39.385 0 0139.385 39.385v119.808l84.756 84.795a39.385 39.385 0 010 55.69l-84.756 84.716v119.847a39.385 39.385 0 01-39.385 39.385H655.754l-84.756 84.756a39.385 39.385 0 01-55.69 0l-84.795-84.796-119.808.04a39.385 39.385 0 01-39.384-39.385V750.946l-84.756-84.676a39.385 39.385 0 010-55.69l84.795-84.795v-119.73a39.385 39.385 0 0139.385-39.384h119.847l84.716-84.756a39.385 39.385 0 0155.69 0z" fill="#FEE159"/><path d="M321.89000000000004 632.084a227.564 227.564 0 10455.13 0 227.564 227.564 0 10-455.13 0z" fill="#EFAE44"/><path d="M549.415 701.637l-81.723 42.93 15.636-90.98-66.166-64.472 91.372-13.273 40.92-82.786 40.843 82.786 91.372 13.273-66.087 64.473 15.596 90.978zM524.17 214.922h39.384v101.14H524.17z" fill="#FEE159"/><path d="M751.695 0v202.28H675.84V0h75.855zM637.952 0v202.28h-202.28V0h202.28zM397.706 202.28H321.93V0h75.855v202.28z" fill="#EFAE44"/><path d="M397.745 202.28v19.692H321.89v-19.693h75.855zm240.207 0v19.692h-202.28v-19.693h202.28zm113.743 0v19.692H675.84v-19.693h75.855z" fill="#D79A33"/></svg>