<?xml version="1.0" standalone="no"?><!DOCTYPE svg PUBLIC "-//W3C//DTD SVG 1.1//EN" "http://www.w3.org/Graphics/SVG/1.1/DTD/svg11.dtd"><svg class="icon" width="200px" height="200.00px" viewBox="0 0 1024 1024" version="1.1" xmlns="http://www.w3.org/2000/svg"><path d="M570.958769 281.875692l84.676923 84.716308h119.88677a39.384615 39.384615 0 0 1 39.384615 39.384615v119.808l84.755692 84.795077a39.384615 39.384615 0 0 1 0 55.689846l-84.755692 84.716308v119.847385a39.384615 39.384615 0 0 1-39.384615 39.384615H655.753846l-84.755692 84.755692a39.384615 39.384615 0 0 1-55.689846 0L430.513231 910.178462l-119.808 0.039384a39.384615 39.384615 0 0 1-39.384616-39.384615v-119.886769l-84.755692-84.676924a39.384615 39.384615 0 0 1 0-55.689846L271.36 525.784615V406.055385a39.384615 39.384615 0 0 1 39.384615-39.384616h119.847385l84.716308-84.755692a39.384615 39.384615 0 0 1 55.689846 0z" fill="#FEE159" /><path d="M549.454769 632.083692m-227.564307 0a227.564308 227.564308 0 1 0 455.128615 0 227.564308 227.564308 0 1 0-455.128615 0Z" fill="#EFAE44" /><path d="M549.415385 701.636923l-81.723077 42.929231 15.635692-90.978462-66.166154-64.472615 91.372308-13.272615 40.920615-82.786462 40.841846 82.786462 91.372308 13.272615-66.087385 64.472615 15.596308 90.978462zM524.169846 214.921846h39.384616v101.139692h-39.384616z" fill="#FEE159" /><path d="M751.694769 0v202.279385H675.84V0h75.854769z m-113.742769 0v202.279385H435.672615V0h202.279385z m-240.246154 202.279385H321.929846V0h75.854769v202.279385z" fill="#EFAE44" /><path d="M397.745231 202.279385v19.692307H321.890462v-19.692307h75.854769z m240.206769 0v19.692307H435.672615v-19.692307h202.279385z m113.742769 0v19.692307H675.84v-19.692307h75.854769z" fill="#D79A33" /></svg>