<svg t="1643527533714" class="icon" viewBox="0 0 1024 1024" version="1.1" xmlns="http://www.w3.org/2000/svg" p-id="784" width="200" height="200"><path d="M1020.928353 527.024211a39.408053 39.408053 0 0 0 3.056594-15.047455c0-5.247922-1.095664-10.342246-3.056594-15.124255a38.445507 38.445507 0 0 0-8.463234-12.620612l-162.542218-162.547338c-15.277852-15.282972-40.042923-15.282972-55.407814 0-15.277852 15.359771-15.277852 40.129962 0 55.412934l95.691374 95.691374h-339.031109V133.665592l95.691374 95.691375a39.044538 39.044538 0 0 0 27.668068 11.443029c10.029931 0 20.059861-3.839943 27.739747-11.443029 15.282972-15.359771 15.282972-40.124842 0-55.407815L539.655524 11.396694c-1.802213-1.879012-4.075459-2.739159-6.189988-4.147138-2.114528-1.413099-3.99354-3.215312-6.425504-4.234177a39.459252 39.459252 0 0 0-30.171711 0c-2.431964 1.018865-4.234177 2.815958-6.425504 4.229057-2.03773 1.413099-4.310976 2.273246-6.195107 4.152258L321.710611 173.949152c-15.282972 15.282972-15.282972 40.048043 0 55.407815a39.208376 39.208376 0 0 0 55.407815 0l95.691374-95.691375V472.788859H133.778692l95.609455-95.691374c15.359771-15.282972 15.359771-40.053163 0-55.412934-15.282972-15.282972-40.048043-15.282972-55.407815 0L11.525153 484.231889A37.273045 37.273045 0 0 0 3.051679 496.852501 38.368708 38.368708 0 0 0 0.000205 511.976756a37.989834 37.989834 0 0 0 3.056594 15.052575 37.58536 37.58536 0 0 0 8.463234 12.697411l162.460299 162.465419a39.029178 39.029178 0 0 0 27.744867 11.44303c10.03505 0 20.064981-3.763144 27.662948-11.44303 15.359771-15.282972 15.359771-40.124842 0-55.407814L133.783811 551.164652h339.031109v339.051588l-95.691374-95.619695a39.065018 39.065018 0 0 0-55.407815 0c-15.282972 15.282972-15.282972 40.048043 0 55.412934l162.4603 162.470539a39.438772 39.438772 0 0 0 12.851008 8.463234A37.887435 37.887435 0 0 0 511.992576 1023.999846c5.094324 0 10.188648-1.018865 14.888738-3.056594a38.629824 38.629824 0 0 0 12.851009-8.463234l162.542218-162.470539c15.282972-15.359771 15.282972-40.129962 0-55.412934-15.359771-15.359771-40.124842-15.359771-55.407815 0l-95.691374 95.619695v-339.051588h339.031109l-95.691374 95.619695c-15.277852 15.282972-15.277852 40.124842 0 55.407814a39.029178 39.029178 0 0 0 27.744866 11.44303c10.03505 0 20.064981-3.763144 27.662948-11.44303l162.542218-162.470539a38.773182 38.773182 0 0 0 8.463234-12.697411"  p-id="785"></path></svg>