<svg t="1605665474431" class="icon" viewBox="0 0 1024 1024" version="1.1" xmlns="http://www.w3.org/2000/svg" p-id="19479" width="64" height="64"><path d="M902.153908 334.085938l0 261.089413L796.906865 595.175351l0-42.255383L609.603969 552.919968l123.084293-248.845555L844.467067 304.074414l-73.780377 135.143956c-7.959276 1.791809-13.915941 8.874111-13.915941 17.373693 0 9.852392 7.986905 17.838274 17.838274 17.838274 9.852392 0 17.838274-7.985882 17.838274-17.838274 0-5.441942-2.489704-10.254551-6.332219-13.527085l75.880201-138.990564 27.342742 0C893.986901 313.874617 898.260228 323.886645 902.153908 334.085938 841.876056 176.186721 689.021739 64.018036 509.944178 64.018036c-225.328955 0-409.160797 177.575348-419.24241 400.414599l79.316463-160.357198 111.777783 0-73.780377 135.143956c-7.959276 1.791809-13.915941 8.874111-13.915941 17.373693 0 9.852392 7.986905 17.838274 17.838274 17.838274 9.851369 0 17.838274-7.985882 17.838274-17.838274 0-5.441942-2.489704-10.254551-6.332219-13.527085l75.880201-138.990564 40.157605 0 0 291.100938L234.236835 595.176374l0-42.255383-138.2896 0c28.550243 172.032098 161.727405 308.686455 331.957461 342.426907-36.102243 42.750663-94.892207 62.61099-94.892207 62.61099 142.270261 6.587022 209.467709-36.288484 234.485499-58.566884 204.546629-28.068266 362.14704-203.415876 362.14704-415.673118C929.645029 431.002244 919.898037 380.568598 902.153908 334.085938zM374.494253 387.985522c35.243689-60.257385 110.842481-82.210373 172.46291-51.703569l-51.893904 88.722694c-12.538571-2.780323-25.964348 2.63706-32.796964 14.3181-6.832615 11.68104-4.973268 26.03905 3.596921 35.604916l-51.893904 88.722694C357.172749 524.895705 339.249541 448.241884 374.494253 387.985522zM426.190659 569.440224l51.893904-88.722694c12.538571 2.780323 25.964348-2.63706 32.796964-14.3181 6.832615-11.68104 4.973268-26.03905-3.596921-35.604916l51.893904-88.722694c56.796564 38.754652 74.718749 115.408473 39.47506 175.664835C563.408857 577.99404 487.810065 599.948051 426.190659 569.440224z" p-id="19480"></path></svg>