<svg class="icon" viewBox="0 0 1024 1024" xmlns="http://www.w3.org/2000/svg" width="64" height="64"><path d="M902.154 334.086v261.09H796.907V552.92H609.604l123.084-248.846h111.78l-73.781 135.144c-7.96 1.792-13.916 8.874-13.916 17.374 0 9.852 7.987 17.838 17.838 17.838 9.852 0 17.838-7.986 17.838-17.838 0-5.442-2.49-10.254-6.332-13.527l75.88-138.99h27.343a417.165 417.165 0 0112.816 30.01C841.876 176.188 689.022 64.019 509.944 64.019c-225.329 0-409.16 177.575-419.242 400.415l79.316-160.358h111.778l-73.78 135.144c-7.96 1.792-13.916 8.875-13.916 17.374 0 9.852 7.987 17.838 17.838 17.838s17.838-7.986 17.838-17.838c0-5.442-2.49-10.254-6.332-13.527l75.88-138.99h40.158v291.1H234.237v-42.255H95.947c28.55 172.032 161.728 308.686 331.958 342.427-36.103 42.75-94.893 62.61-94.893 62.61 142.27 6.588 209.468-36.288 234.486-58.566 204.547-28.068 362.147-203.416 362.147-415.673 0-52.717-9.747-103.15-27.491-149.633zm-527.66 53.9c35.244-60.258 110.843-82.21 172.463-51.704l-51.894 88.723c-12.538-2.78-25.964 2.637-32.797 14.318-6.832 11.68-4.973 26.039 3.597 35.605L413.97 563.65c-56.796-38.754-74.72-115.408-39.475-175.664zm51.697 181.454l51.894-88.722c12.538 2.78 25.964-2.638 32.797-14.319 6.832-11.68 4.973-26.039-3.597-35.604l51.894-88.723c56.796 38.754 74.718 115.408 39.475 175.665-35.245 60.257-110.844 82.211-172.463 51.703z"/></svg>