<svg class="icon" viewBox="0 0 1024 1024" xmlns="http://www.w3.org/2000/svg" width="200" height="200"><path d="M226.133 968.533zM977.92 431.787H187.733c-12.8 0-25.6-5.12-34.986-13.654l-120.32-110.08c-10.24-9.386-16.214-23.893-16.214-38.4s5.974-28.16 16.214-38.4l120.32-110.08c9.386-8.533 22.186-13.653 34.986-13.653H977.92c13.653 0 26.453 7.68 31.573 20.48 5.974 12.8 3.414 27.307-5.12 37.547L913.92 269.653l90.453 104.107c9.387 10.24 11.094 24.747 5.12 37.547-5.973 11.946-17.92 20.48-31.573 20.48zM841.387 855.893H51.2c-13.653 0-26.453-7.68-31.573-20.48-5.974-12.8-3.414-27.306 5.12-37.546L115.2 693.76 24.747 589.653c-9.387-10.24-11.094-24.746-5.12-37.546s17.92-20.48 31.573-20.48h790.187c12.8 0 25.6 5.12 34.986 13.653l120.32 110.08c10.24 9.387 16.214 23.893 16.214 38.4s-5.974 28.16-16.214 37.547l-120.32 110.08c-10.24 9.386-22.186 14.506-34.986 14.506z"/><path d="M514.56 1024c-17.067 0-30.72-13.653-30.72-30.72V825.173c0-17.066 13.653-30.72 30.72-30.72s30.72 13.654 30.72 30.72V993.28c0 17.067-13.653 30.72-30.72 30.72zm-.853-430.08c-17.067 0-30.72-13.653-30.72-30.72V401.067c0-17.067 13.653-30.72 30.72-30.72s30.72 13.653 30.72 30.72V563.2c.853 17.067-13.654 30.72-30.72 30.72zm0-424.107c-17.067 0-30.72-13.653-30.72-30.72V32.427c0-17.067 13.653-30.72 30.72-30.72s30.72 13.653 30.72 30.72v106.666c.853 17.067-13.654 30.72-30.72 30.72z"/></svg>