<svg t="1604046264080" class="icon" viewBox="0 0 1024 1024" version="1.1" xmlns="http://www.w3.org/2000/svg" p-id="6973" width="200" height="200"><path d="M226.133333 968.533333zM977.92 431.786667H187.733333c-12.8 0-25.6-5.12-34.986666-13.653334L32.426667 308.053333c-10.24-9.386667-16.213333-23.893333-16.213334-38.4s5.973333-28.16 16.213334-38.4l120.32-110.08c9.386667-8.533333 22.186667-13.653333 34.986666-13.653333h790.186667c13.653333 0 26.453333 7.68 31.573333 20.48 5.973333 12.8 3.413333 27.306667-5.12 37.546667l-90.453333 104.106666 90.453333 104.106667c9.386667 10.24 11.093333 24.746667 5.12 37.546667-5.973333 11.946667-17.92 20.48-31.573333 20.48zM841.386667 855.893333H51.2c-13.653333 0-26.453333-7.68-31.573333-20.48-5.973333-12.8-3.413333-27.306667 5.12-37.546666l90.453333-104.106667L24.746667 589.653333c-9.386667-10.24-11.093333-24.746667-5.12-37.546666s17.92-20.48 31.573333-20.48h790.186667c12.8 0 25.6 5.12 34.986666 13.653333l120.32 110.08c10.24 9.386667 16.213333 23.893333 16.213334 38.4s-5.973333 28.16-16.213334 37.546667l-120.32 110.08c-10.24 9.386667-22.186667 14.506667-34.986666 14.506666z" p-id="6974"></path><path d="M514.56 1024c-17.066667 0-30.72-13.653333-30.72-30.72V825.173333c0-17.066667 13.653333-30.72 30.72-30.72s30.72 13.653333 30.72 30.72v168.106667c0 17.066667-13.653333 30.72-30.72 30.72z m-0.853333-430.08c-17.066667 0-30.72-13.653333-30.72-30.72V401.066667c0-17.066667 13.653333-30.72 30.72-30.72s30.72 13.653333 30.72 30.72v162.133333c0.853333 17.066667-13.653333 30.72-30.72 30.72z m0-424.106667c-17.066667 0-30.72-13.653333-30.72-30.72V32.426667c0-17.066667 13.653333-30.72 30.72-30.72s30.72 13.653333 30.72 30.72v106.666666c0.853333 17.066667-13.653333 30.72-30.72 30.72z" p-id="6975"></path></svg>