<svg class="icon" viewBox="0 0 1024 1024" xmlns="http://www.w3.org/2000/svg" width="200" height="200"><path d="M677.677 294.614c19.165 57.544 44.716 102.3 89.432 147.055 38.322-38.362 63.873-89.511 83.038-147.055h-172.47zM256.108 614.3h166.076l-83.038-223.78-83.038 223.78z"/><path d="M894.855.504H128.354C58.095.504.608 58.047.608 128.378v767.244c0 70.33 57.487 127.874 127.746 127.874h766.5c70.26 0 127.747-57.543 127.747-127.874V128.378C1022.6 58.048 971.499.504 894.855.504zM581.867 825.291c-12.771 12.788-25.55 12.788-38.322 12.788-6.394 0-19.165 0-25.551-6.394-6.394-6.394-12.78 0-12.78-6.394s-6.385-12.787-12.77-25.574c-6.395-12.788-6.395-19.182-12.78-31.969l-25.543-70.33H230.557l-25.55 70.33c-12.772 25.575-19.166 44.756-25.551 57.543-6.394 12.788-19.166 12.788-38.323 12.788-12.78 0-25.55-6.394-38.33-12.788-12.771-12.787-19.157-19.18-19.157-31.968 0-6.394 0-12.788 6.386-25.575 6.393-12.787 6.393-19.181 12.771-31.968L243.33 377.732c6.393-12.787 6.393-25.574 12.779-38.362 6.386-12.787 12.771-25.575 19.157-31.968 6.394-6.394 12.78-19.181 25.551-25.575 12.78-6.394 25.55-6.394 38.33-6.394 12.772 0 25.543 0 38.322 6.394 12.772 6.394 19.166 12.787 25.551 25.575 6.386 6.393 12.772 19.18 19.157 31.968 6.394 12.788 12.78 25.575 19.166 44.756L581.867 735.78c12.771 25.574 19.165 44.755 19.165 57.543-6.394 6.394-12.78 19.18-19.165 31.968zm351.31-249.354c-70.259-25.575-121.36-57.543-166.076-95.906-44.708 44.756-102.196 76.725-172.463 95.906l-19.157-31.968c70.26-19.182 127.746-44.756 172.462-89.512-44.716-44.756-83.038-102.3-95.817-166.236h-63.873v-25.575h172.47c-12.788-19.181-25.559-44.756-38.33-63.937l19.157-6.394c12.78 19.181 31.944 44.756 44.716 70.33h159.682v31.97h-63.873c-19.157 63.936-51.093 121.48-89.424 159.842 44.716 38.362 95.81 70.33 166.077 89.512l-25.551 31.968z"/></svg>