<svg t="1605416563081" class="icon" viewBox="0 0 1024 1024" version="1.1" xmlns="http://www.w3.org/2000/svg" p-id="7365" width="48" height="48"><path d="M511.871232 0a394.752 394.752 0 0 0-325.12 619.008 125.952 125.952 0 0 0 7.168 11.264l288.256 379.904a39.424 39.424 0 0 0 29.696 13.824 40.96 40.96 0 0 0 30.72-15.36l286.72-378.368a88.576 88.576 0 0 0 6.656-10.24A394.752 394.752 0 0 0 511.871232 0z m0 536.064a141.312 141.312 0 1 1 141.312-141.312 141.312 141.312 0 0 1-141.312 141.312z" p-id="7366"></path></svg>