<?xml version="1.0" standalone="no"?><!DOCTYPE svg PUBLIC "-//W3C//DTD SVG 1.1//EN" "http://www.w3.org/Graphics/SVG/1.1/DTD/svg11.dtd"><svg class="icon" width="200px" height="200.00px" viewBox="0 0 1024 1024" version="1.1" xmlns="http://www.w3.org/2000/svg"><path d="M0 455.111111m56.888889 0l170.666667 0q56.888889 0 56.888888 56.888889l0 341.333333q0 56.888889-56.888888 56.888889l-170.666667 0q-56.888889 0-56.888889-56.888889l0-341.333333q0-56.888889 56.888889-56.888889Z" fill="#96F3EE" /><path d="M341.333333 284.444444m56.888889 0l170.666667 0q56.888889 0 56.888889 56.888889l0 512q0 56.888889-56.888889 56.888889l-170.666667 0q-56.888889 0-56.888889-56.888889l0-512q0-56.888889 56.888889-56.888889Z" fill="#3BB9FF" /><path d="M739.555556 56.888889h170.666666a56.888889 56.888889 0 0 1 56.888889 56.888889v739.555555a56.888889 56.888889 0 0 1-56.888889 56.888889h-170.666666a56.888889 56.888889 0 0 1-56.888889-56.888889V113.777778a56.888889 56.888889 0 0 1 56.888889-56.888889z" fill="#0256CE" /></svg>