<svg class="icon" width="200" height="200" viewBox="0 0 1024 1024" xmlns="http://www.w3.org/2000/svg"><path d="M56.889 455.111h170.667q56.888 0 56.888 56.889v341.333q0 56.89-56.888 56.89H56.889Q0 910.222 0 853.332V512q0-56.889 56.889-56.889z" fill="#96F3EE"/><path d="M398.223 284.444h170.666q56.889 0 56.889 56.89v512q0 56.888-56.89 56.888H398.223q-56.889 0-56.889-56.889v-512q0-56.889 56.89-56.889z" fill="#3BB9FF"/><path d="M739.556 56.889h170.666a56.889 56.889 0 0156.89 56.889v739.555a56.889 56.889 0 01-56.89 56.89H739.556a56.889 56.889 0 01-56.89-56.89V113.778a56.889 56.889 0 0156.89-56.89z" fill="#0256CE"/></svg>