<svg class="icon" viewBox="0 0 1024 1024" xmlns="http://www.w3.org/2000/svg" width="200" height="200"><path d="M372 372.2c30 90.9 100.3 216.9 210.7 385.2 4.1 6.3 11.2 10.1 18.9 10.1 7.6 0 14.7-3.8 18.9-10.1 45.2-69 55.8-105.2 87.5-161.2v224l-392 140v-560l56-28zM832.2 288l99.9 56.3c17.3 9.7 28 13.4 28 28v476c0 16.1-9 22.8-28 28-23.5 6.4-42.3 9-56 0l-112-56-1.2-326.3c29.1-57.5 65.6-143 69.3-206zM260 372.2v588l-168-112c-23.1-12.7-28-20.3-28-35.7V344.2c0-15.8 8.7-28.6 22.7-36.4 14-7.8 31.3-7.6 45.1.6L260 372.2z"/><path d="M620.6 647.6c-4.1 6.4-11.3 10.2-19 10.2-7.7 0-14.8-3.9-18.9-10.2C460.9 458.9 400 330.1 400 261.1c0-108.7 84.7-196.8 196-196.8s196 87.3 196 196c0 68.9-49.7 198.6-171.4 387.3zm-24.7-275.4c40 0 76.9-21.3 96.9-56s20-77.3 0-112c-20-34.6-56.9-56-96.9-56-61.8 0-111.9 50.1-111.9 112 0 61.8 50.1 112 111.9 112zm0 0"/></svg>