<svg t="1643536456545" class="icon" viewBox="0 0 1024 1024" version="1.1" xmlns="http://www.w3.org/2000/svg" p-id="7572" width="200" height="200"><path d="M750.92992 443.66848v-102.33856C750.92992 209.36704 643.97312 102.4 512 102.4S273.07008 209.36704 273.07008 341.32992v102.4C178.80064 443.72992 102.4 520.13056 102.4 614.4s76.40064 170.67008 170.67008 170.67008C273.07008 860.4672 334.20288 921.6 409.6 921.6h136.52992V785.07008h-68.25984v68.25984H409.6a68.25984 68.25984 0 0 1-68.27008-68.25984V341.32992c0-94.2592 76.40064-170.65984 170.67008-170.65984s170.67008 76.40064 170.67008 170.65984V784.9984h68.25984C845.19936 784.9984 921.6 708.59776 921.6 614.32832c0-94.2592-76.40064-170.65984-170.67008-170.65984z" p-id="7573"></path></svg>