<svg class="icon" viewBox="0 0 1024 1024" xmlns="http://www.w3.org/2000/svg" width="48" height="48"><path d="M583.653 168.127L233.3 203.677l-7.07-4.842 332.3-35.998-.37-3.744-336.618 36.54-5.83-4.083 336.137-36.633-.495-3.868-340.33 37.266-6.56-4.438 341.32-37.763-.37-3.713-345.666 38.24-7.163-4.933 345.776-38.364-.495-3.837-349.999 38.967-7.796-5.321 11.153-1.238 355.675-38.627-12.995-18.44-388.965 41.226v516.05l70.433 49.78v.34l48.126-4.92V226.68l320.156-31.435v-27.118zm0 0"/><path d="M728.078 264.92l-350.479 35.519-6.93-4.827 332.162-36.136-.372-3.714-336.6 36.493-5.833-3.96 336.123-36.74-.372-3.712-340.438 37.25-6.435-4.455 341.304-37.746-.371-3.696-345.653 38.24-7.284-4.98 345.757-38.458-.37-3.744L332.18 269.13l-7.797-5.322 11.278-1.113 355.66-38.736-13.116-18.316-388.952 41.086v516.08l70.51 49.72v.402l48.032-4.951V323.334l320.158-31.295.125-27.12zm0 0"/><path d="M528.707 402.676l-7.04-4.857 332.271-36.121-.495-3.574-336.494 36.495-5.8-4.085 335.984-36.74-.371-3.713-340.455 37.22-6.436-4.425L841.192 345.1l-.371-3.697-345.634 38.242-7.194-4.951 345.651-38.489-.37-3.712-349.968 38.875-7.797-5.322 11.123-1.144 355.674-38.705-12.993-18.315-388.966 41.179v515.971l70.416 49.75v.371l368.177-37.374.124-510.618-350.357 35.515zm284.515 187.12l-212.488 21.78V498.433l212.488-21.627v112.99zm0 0"/></svg>