<svg t="1605276904932" class="icon" viewBox="0 0 1024 1024" version="1.1" xmlns="http://www.w3.org/2000/svg" p-id="4351" width="48" height="48"><path d="M583.653435 168.127162l-350.353436 35.549657-7.070023-4.842285 332.300268-35.997865-0.369414-3.743254-336.618621 36.539194-5.830799-4.082992 336.137667-36.632315-0.49528-3.868097-340.330152 37.265742-6.559393-4.438079L545.783942 146.113799l-0.369414-3.712555-345.666694 38.239929-7.163143-4.933359 345.776188-38.363749-0.49528-3.837398-349.998349 38.9675-7.79657-5.321192 11.153014-1.238201 355.675652-38.626739-12.994965-18.439978-388.965849 41.225937L144.938532 666.12424l70.433142 49.779753 0 0.340761 48.126091-4.92108L263.497765 226.679719l320.156694-31.434943L583.654458 168.127162zM583.653435 168.127162" p-id="4352"></path><path d="M728.077755 264.919648l-350.47828 35.518958-6.92983-4.826935 332.161099-36.136012-0.37146-3.713578-336.600201 36.493146-5.832845-3.960195 336.122317-36.739762-0.37146-3.712555-340.437599 37.250392-6.435573-4.455475 341.30434-37.745672-0.37146-3.696182-345.652368 38.240953-7.284917-4.981455 345.757768-38.45687-0.369414-3.744277-350.107843 38.874379-7.79657-5.321192 11.277858-1.113357 355.660302-38.736233-13.116739-18.316158-388.951523 41.086767 0 516.078899 70.508867 49.720402 0 0.402159 48.03297-4.950755L407.795195 323.33406l320.157717-31.29475L728.077755 264.919648zM728.077755 264.919648" p-id="4353"></path><path d="M528.707009 402.676106l-7.039323-4.856611 332.270593-36.121685-0.49528-3.573385-336.493777 36.494169-5.8001-4.085038 335.984171-36.738739-0.37146-3.713578-340.454996 37.219693-6.435573-4.424776 341.320713-37.776372-0.37146-3.697205-345.633948 38.241976-7.193843-4.950755 345.651344-38.488593-0.369414-3.712555-349.968673 38.875402-7.79657-5.322216 11.122315-1.144056 355.674629-38.70451-12.992919-18.315134-388.966872 41.178865 0 515.971451 70.416769 49.749054 0 0.37146 368.17636-37.374212 0.12382-510.617513L528.707009 402.676106zM813.221948 589.796854l-212.487485 21.779026L600.734462 498.433006l212.487485-21.626553L813.221948 589.796854zM813.221948 589.796854" p-id="4354"></path></svg>