<svg class="icon" viewBox="0 0 1024 1024" xmlns="http://www.w3.org/2000/svg" width="128" height="128"><defs><style/></defs><path d="M780.8 437.521c41.13 0 74.479 33.348 74.479 74.479v347.546a74.479 74.479 0 01-74.479 74.479H234.667a74.479 74.479 0 01-74.48-74.48V512c0-41.13 33.349-74.479 74.48-74.479H780.8m0-74.479H234.667A148.958 148.958 0 0085.709 512v347.546a148.958 148.958 0 00148.958 148.923H780.8a148.958 148.958 0 00148.958-148.923V512A148.958 148.958 0 00780.8 363.042zM507.733 89.975a173.739 173.739 0 01173.739 173.773v99.328H334.029v-99.328A173.739 173.739 0 01507.767 90.01m0-74.48a248.252 248.252 0 00-248.251 248.218v173.773h496.503V263.782A248.252 248.252 0 00507.733 15.497zm0 781.961a37.205 37.205 0 01-37.205-37.24V611.295a37.205 37.205 0 0174.41 0v148.958a37.205 37.205 0 01-37.205 37.205z" fill="#8A8A8A"/></svg>