<svg class="icon" viewBox="0 0 1024 1024" xmlns="http://www.w3.org/2000/svg" width="200" height="200"><path d="M784.998 628.634h-51.61v56.73h51.61v-56.73zM860.16 0H163.84C73.318 0 0 73.318 0 163.84v696.32C0 950.682 73.318 1024 163.84 1024h696.32c90.522 0 163.84-73.318 163.84-163.84V163.84C1024 73.318 950.682 0 860.16 0zm0 717.824c0 33.28-28.262 60.416-62.771 60.416h-570.88c-34.509 0-62.669-27.238-62.669-60.416v-253.85h696.32v253.85zm0-344.371H163.84v-67.38c0-33.177 28.262-60.313 62.669-60.313h570.88c34.509 0 62.771 27.136 62.771 60.314v67.379zm-141.517 255.18h-51.61v56.73h51.61v-56.73zm-63.59 0h-51.61v56.73h51.61v-56.73z"/></svg>