<svg t="1608471767904" class="icon" viewBox="0 0 1024 1024" version="1.1" xmlns="http://www.w3.org/2000/svg" p-id="1184" width="200" height="200"><path d="M898.34 188.81L538.35 74.51l-359.87 114.3c-13.53 4.27-22.67 16.86-22.55 31.1v454.94c0.72 3.09 17.69 77.98 91.27 150.5 56.61 55.78 192.4 127.48 251.63 158.57 9.25 4.87 13.65 6.65 17.56 8.78l17.57 8.78c4.63 2.49 12.94 2.38 17.57 0l17.57-8.78c34.65-16.97 195-102.9 260.4-167.35 73.71-72.52 90.68-147.41 91.39-150.5V219.91c0.23-14.24-9.02-26.83-22.55-31.1zM542.86 930.98l-0.24-0.12h0.59c-0.23 0.12-0.35 0.12-0.35 0.12z m85.81-264.32h-58.16v81.9c0 18.99-15.43 34.42-34.42 34.42-18.99 0-34.42-15.43-34.42-34.42V537.29c0-0.71 0.12-1.3 0.12-1.9-6.29-1.9-12.58-4.16-18.87-7-21.24-9.73-39.4-27.18-51.51-47-12.58-20.65-19.23-46.53-17.21-70.74 2.37-27.65 12.34-51.75 30.03-73.23 30.62-37.15 86.88-52.22 131.98-35.73 25.52 9.38 46.29 25.05 61.96 47.12 13.77 19.35 20.77 43.44 21.37 67.06 0 0.71 0.12 1.3 0 2.02 0 0.83 0 1.66-0.12 2.49-1.66 52.46-37.74 101.95-89.02 115.61v60.41h58.16c18.99 0 34.42 15.43 34.42 34.42v1.42h0.12c-0.01 18.99-15.44 34.42-34.43 34.42z" p-id="1185"></path><path d="M577.99 449.1c0.35-0.59 0.71-1.07 0.83-1.19a97.38 97.38 0 0 0 5.58-9.74c1.54-4.39 2.73-8.78 3.68-13.41 0.12-2.25 0.24-4.63 0.36-6.89 0-2.26-0.12-4.63-0.36-6.88-0.83-4.51-2.14-9.02-3.68-13.41a108.73 108.73 0 0 0-4.51-8.19c-0.36-0.36-1.19-1.54-2.61-3.8-1.3-1.43-2.61-2.97-4.03-4.27-1.66-1.66-3.44-3.32-5.34-4.87-0.59-0.35-1.06-0.71-1.19-0.83a97.226 97.226 0 0 0-9.73-5.58c-4.39-1.54-8.78-2.73-13.29-3.68-4.63-0.35-9.26-0.35-13.89 0-4.51 0.83-9.02 2.14-13.29 3.68a108.73 108.73 0 0 0-8.19 4.51c-0.36 0.36-1.54 1.19-3.8 2.61-1.43 1.3-2.97 2.61-4.27 4.03-1.66 1.66-3.32 3.44-4.87 5.34-0.35 0.59-0.71 1.07-0.83 1.19a97.226 97.226 0 0 0-5.58 9.73c-1.54 4.39-2.73 8.78-3.68 13.29-0.35 4.63-0.35 9.26 0 13.89 0.83 4.51 2.14 9.02 3.68 13.29 1.42 2.85 2.85 5.46 4.51 8.19 0.36 0.36 1.19 1.54 2.61 3.8 1.3 1.43 2.61 2.97 4.03 4.27 1.66 1.66 3.44 3.32 5.34 4.87 0.59 0.35 1.07 0.71 1.19 0.83 3.08 2.02 6.41 3.92 9.73 5.58 4.39 1.54 8.78 2.73 13.29 3.68 4.63 0.36 9.26 0.36 13.89 0 4.51-0.83 9.02-2.14 13.29-3.68 2.85-1.42 5.46-2.85 8.19-4.51 0.36-0.36 1.54-1.19 3.8-2.61 1.54-1.19 2.97-2.49 4.27-3.92 1.67-1.64 3.33-3.42 4.87-5.32z" p-id="1186"></path></svg>