<svg class="icon" viewBox="0 0 1024 1024" xmlns="http://www.w3.org/2000/svg" width="200" height="200"><path d="M760.32 1024H263.68c-56.32 0-102.4-46.08-102.4-102.4V102.4C161.28 46.08 207.36 0 263.68 0h494.08c56.32 0 102.4 46.08 102.4 102.4v819.2c2.56 56.32-43.52 102.4-99.84 102.4zM263.68 51.2c-28.16 0-51.2 23.04-51.2 51.2v819.2c0 28.16 23.04 51.2 51.2 51.2h494.08c28.16 0 51.2-23.04 51.2-51.2V102.4c0-28.16-23.04-51.2-51.2-51.2H263.68z"/><path d="M593.92 161.28H432.64c-15.36 0-25.6-10.24-25.6-25.6s10.24-25.6 25.6-25.6h161.28c15.36 0 25.6 10.24 25.6 25.6s-12.8 25.6-25.6 25.6zm-407.04 601.6h647.68v51.2H186.88zM468.48 888.32a43.52 43.52 0 1087.04 0 43.52 43.52 0 10-87.04 0z"/></svg>