<svg class="icon" viewBox="0 0 1024 1024" xmlns="http://www.w3.org/2000/svg" width="48" height="48"><path d="M683.592 71.601H338.69c-28.986 0-52.566 23.582-52.566 52.567V395.97c0 28.986 23.581 52.567 52.566 52.567h344.903c28.986 0 52.568-23.582 52.568-52.567V124.168c0-28.986-23.582-52.566-52.568-52.566zm-33.345 220.777c0 7.51-6.089 13.596-13.597 13.596H385.633c-7.509 0-13.597-6.088-13.597-13.596V165.933c0-7.51 6.088-13.597 13.597-13.597H636.65c7.51 0 13.597 6.088 13.597 13.597v126.445z"/><path d="M854.41 216.464H736.16v-92.296c0-26.225-19.305-48.024-44.45-51.938H330.572c-25.145 3.914-44.45 25.712-44.45 51.938v92.296H167.871c-41.977 0-76.128 34.15-76.128 76.128v131.03c0 14.592 11.059 29.085 30.788 43.077 56.268 39.903 179.128 67.326 328.646 73.355 19.842.8 39.733 1.19 59.481 1.193 125.672.002 246.513-15.868 325.424-43.524 32.21-11.287 56.789-24.095 73.058-38.066 13.912-11.95 21.396-23.738 21.396-36.037V292.592c0-41.978-34.149-76.127-76.126-76.127zm-482.375 0v-50.53c0-7.51 6.088-13.597 13.598-13.597H636.65c7.51 0 13.598 6.088 13.598 13.597v50.53H372.035z"/><path d="M855.12 552.046c-71.95 25.217-171.628 41.093-280.183 45.525v97.277a9.593 9.593 0 01-9.593 9.593H456.938c-5.297 0-9.594-4.296-9.594-9.593v-97.344c-159.858-6.6-289.076-36.462-355.6-82.109v318.221c0 41.976 34.151 76.127 76.128 76.127H854.41c41.977 0 76.127-34.151 76.127-76.128V515.597c-19.959 13.64-45.215 25.864-75.418 36.45z"/></svg>