<svg class="icon" width="200" height="200" viewBox="0 0 1024 1024" xmlns="http://www.w3.org/2000/svg"><path d="M511.999 1024a512 512 0 10-512-512 512 512 0 00512 512z" fill="#23A0F0"/><path d="M735.765 604.422c-3.55-49.47-36.192-90.932-55.09-112.47a70.383 70.383 0 00-15.577-67.003v-1.718c0-97.235-68.028-167.254-153.35-167.55-85.333.342-153.35 70.315-153.35 167.55v1.718a70.383 70.383 0 00-15.576 67.003c-18.898 21.413-51.54 62.874-55.09 112.47a75.39 75.39 0 007.554 40.425c7.555 10.308 28.513-2.06 43.406-34.93a210.33 210.33 0 0035.499 67.914c-36.307 8.477-46.729 44.897-34.475 64.853 8.59 14.086 28.445 25.657 62.419 25.657 60.473 0 87.267-16.611 99.18-28.057a16.259 16.259 0 0120.844 0c11.913 11.57 38.684 28.057 99.18 28.057 34.02 0 53.715-11.57 62.419-25.657 12.253-19.922 1.831-56.342-34.475-64.853a211.627 211.627 0 0035.499-67.914c14.893 32.87 35.85 45.124 43.406 34.93a76.493 76.493 0 007.577-40.425z" fill="#FFF"/></svg>