<svg class="icon" viewBox="0 0 1024 1024" xmlns="http://www.w3.org/2000/svg" width="200" height="200"><path d="M726.528 339.968h-404.48l11.776 66.56 27.648 194.048c1.024 0 2.048-.512 2.56-.512l338.944-27.136 5.12-1.024c6.656-2.56 10.24-14.848 11.264-22.528l28.672-186.368c.512-6.144-4.096-12.288-7.68-16.384-2.048-2.56-11.264-6.656-13.824-6.656z"/><path d="M512 0C229.376 0 0 229.376 0 512s229.376 512 512 512 512-229.376 512-512S794.624 0 512 0zM391.168 806.912c-22.528 0-40.96-18.432-40.96-40.96s18.432-40.96 40.96-40.96 40.96 18.432 40.96 40.96-17.92 40.96-40.96 40.96zm284.672-.512c-22.528 0-40.448-17.92-40.448-40.448s17.92-40.448 40.448-40.448 40.448 17.92 40.448 40.448S697.856 806.4 675.84 806.4zm109.056-433.664L752.64 556.032c-2.048 14.848-6.144 28.672-17.408 38.912-10.752 12.288-23.552 13.824-23.552 13.824L367.104 634.88l-1.024 3.072 2.048 12.8c1.024 7.68 11.264 17.408 17.92 17.408h333.824c13.312 0 24.064 7.68 24.064 20.48 0 13.312-10.752 20.48-24.064 20.48H389.12c-31.232 0-58.368-21.504-62.464-52.736l-34.304-242.688-19.456-113.664c-1.024-7.68-8.192-14.848-15.36-14.848h-26.112c-13.312 0-24.064-10.752-24.064-24.064s10.752-24.064 24.064-24.064h26.112c31.232 0 52.224 24.576 56.32 55.808l1.024 5.632h411.648c16.384 0 31.744 6.656 43.008 19.456 12.288 14.336 17.92 34.304 15.36 54.784z"/></svg>