<svg t="1605417374560" class="icon" viewBox="0 0 1024 1024" version="1.1" xmlns="http://www.w3.org/2000/svg" p-id="16436" width="48" height="48"><path d="M930.237151 408.427208l-0.360084-5.758204c-0.473299-11.400049-6.302262-21.966716-15.70062-28.445089l-47.969835-33.115178 29.508045-51.754652c5.605679-9.870084 6.33371-21.748149 1.927788-32.201602-29.467162-69.968-77.800227-131.015658-139.723723-176.435027-9.321309-6.813298-21.342465-8.813418-32.308526-5.39183l-55.871249 17.263606-21.597197-55.146363c-4.119742-10.637425-13.040084-18.718095-24.043884-21.820481-74.449399-20.829856-149.845394-20.829856-224.29951 0-10.999082 3.102386-19.919424 11.150035-24.076904 21.78746l-21.598769 55.179384-55.80049-17.263606c-10.999082-3.42316-22.9825-1.382158-32.308526 5.39183-61.99111 45.419369-110.328892 106.467027-139.797627 176.435027-4.405923 10.453452-3.710913 22.364538 1.894767 32.201602l29.541066 51.754652-47.969835 33.115178c-9.286716 6.446924-15.117252 16.823328-15.662882 28.116453l-0.327063 5.319499c-0.367946 4.734558-0.655699 9.470689-0.655699 14.238269 0 70.232166 17.518338 139.797627 50.664964 201.244679 5.431141 10.057202 15.225749 16.975853 26.517301 18.724385l57.512856 8.849583-4.184211 57.984582c-0.806652 11.334008 3.673175 22.364538 12.159529 29.868129 57.552167 51.032911 127.774899 85.093114 203.101708 98.493282 2.111761 0.399395 4.262832 0.581796 6.374593 0.581796 9.142053 0 18.029375-3.45618 24.842673-9.799325l41.925451-39.040059 41.960044 39.040059c8.376285 7.800779 19.927286 11.326146 31.214121 9.21753 75.254478-13.398596 145.478782-47.460371 203.06397-98.493282 8.484782-7.503591 12.970898-18.575005 12.205129-29.868129l-4.225094-57.984582 57.512856-8.849583c11.288408-1.748532 21.05314-8.634162 26.515729-18.685074 33.108888-61.414032 50.666537-130.948043 50.666537-201.28399C930.820519 417.345978 930.564214 412.905462 930.237151 408.427208L930.237151 408.427208zM511.94811 619.063955c-110.6591 0-200.367268-89.635837-200.367268-200.294937 0-110.655955 89.675147-200.334248 200.367268-200.334248 110.655955 0 200.331103 89.678292 200.331103 200.334248C712.279213 529.428118 622.604066 619.063955 511.94811 619.063955L511.94811 619.063955zM511.94811 619.063955" p-id="16437"></path><path d="M796.781096 781.476135c-58.786517 47.754414-128.43217 79.915133-202.774644 93.1785-4.333591 0.79879-8.670327 0.616389-12.892277-0.080193l31.802207 120.349929c5.096215 14.095178 16.607906 24.037594 30.846175 26.661964 2.405804 0.435561 4.8462 0.655699 7.252004 0.655699 11.654782 0 22.908596-5.171691 30.813154-14.423814l57.113461-65.382821 106.06606 26.045575c16.428651 4.368184 33.072723-1.095977 42.617316-14.060585 9.505283-12.895421 9.832346-30.523829-0.400967-46.553085L796.781096 781.476135 796.781096 781.476135zM796.781096 781.476135" p-id="16438"></path><path d="M443.978657 875.233286c-2.256424 0-4.552158-0.179256-6.846319-0.619534-76.999865-13.694211-148.941252-47.751269-208.965264-98.274716l-93.068431 133.718649c-8.887321 14.60307-8.335402 31.722013 1.423041 44.689766 9.760015 12.96618 26.006264 18.142589 41.669146 13.878184l105.921397-26.190238 56.567831 65.274324c8.121552 9.396786 19.196111 14.496146 30.813154 14.496146 2.734439 0 5.503472-0.29247 8.231622-0.874266 14.428532-3.023765 25.754677-13.62188 30.306835-28.522137l35.186056-117.757007C444.745998 875.013147 444.379624 875.233286 443.978657 875.233286L443.978657 875.233286zM443.978657 875.233286" p-id="16439"></path></svg>