<svg class="icon" viewBox="0 0 1024 1024" xmlns="http://www.w3.org/2000/svg" width="48" height="48"><path d="M930.237 408.427l-.36-5.758a36.435 36.435 0 00-15.7-28.445l-47.97-33.115 29.508-51.755c5.605-9.87 6.333-21.748 1.927-32.202-29.467-69.968-77.8-131.015-139.723-176.435-9.322-6.813-21.343-8.813-32.309-5.391L669.74 92.589l-21.597-55.146c-4.12-10.638-13.04-18.718-24.044-21.82-74.45-20.83-149.846-20.83-224.3 0-10.999 3.102-19.92 11.15-24.077 21.787l-21.598 55.18-55.8-17.264c-11-3.424-22.983-1.383-32.31 5.391-61.99 45.42-110.328 106.467-139.797 176.435-4.406 10.454-3.71 22.365 1.895 32.202l29.54 51.755-47.969 33.115c-9.287 6.447-15.117 16.823-15.663 28.116l-.327 5.32c-.368 4.734-.656 9.47-.656 14.238 0 70.232 17.519 139.798 50.665 201.245a36.453 36.453 0 0026.518 18.724l57.513 8.85-4.185 57.984c-.806 11.334 3.673 22.365 12.16 29.868 57.552 51.033 127.775 85.094 203.102 98.494 2.111.4 4.262.582 6.374.582 9.142 0 18.03-3.457 24.843-9.8l41.925-39.04 41.96 39.04c8.377 7.801 19.928 11.326 31.214 9.218 75.255-13.399 145.48-47.46 203.064-98.494 8.485-7.503 12.971-18.575 12.206-29.868l-4.226-57.984 57.513-8.85c11.289-1.748 21.053-8.634 26.516-18.685 33.109-61.414 50.667-130.948 50.667-201.284-.044-4.552-.3-8.993-.628-13.47zM511.948 619.064c-110.659 0-200.367-89.636-200.367-200.295 0-110.656 89.675-200.334 200.367-200.334 110.656 0 200.331 89.678 200.331 200.334 0 110.66-89.675 200.295-200.33 200.295zm0 0M796.781 781.476c-58.786 47.755-128.432 79.915-202.775 93.179-4.333.798-8.67.616-12.892-.08l31.802 120.35c5.097 14.095 16.608 24.037 30.847 26.661 2.405.436 4.846.656 7.252.656 11.654 0 22.908-5.172 30.813-14.424l57.113-65.383 106.066 26.046c16.429 4.368 33.073-1.096 42.618-14.06 9.505-12.896 9.832-30.524-.401-46.554l-90.443-126.39zm0 0M443.979 875.233c-2.257 0-4.553-.179-6.847-.62-77-13.693-148.94-47.75-208.965-98.274L135.1 910.058c-8.888 14.603-8.336 31.722 1.423 44.69 9.76 12.966 26.006 18.142 41.669 13.878l105.921-26.19 56.568 65.274c8.122 9.397 19.196 14.496 30.813 14.496 2.735 0 5.504-.293 8.232-.874 14.428-3.024 25.755-13.622 30.307-28.523l35.186-117.757c-.472-.039-.838.181-1.24.181zm0 0"/></svg>