<svg t="1605335469470" class="icon" viewBox="0 0 1024 1024" version="1.1" xmlns="http://www.w3.org/2000/svg" p-id="3122" width="48" height="48"><path d="M512.37376 682.24512c-94.025728 0-170.5216-76.372992-170.5216-170.24512 0-93.891584 76.495872-170.278912 170.5216-170.278912 45.47584 0 88.275968 17.728512 120.520704 49.915904 32.254976 32.200704 50.013184 74.947584 49.992704 120.363008 0.001024 93.872128-76.4928 170.24512-170.513408 170.24512m399.666176-246.146048l-0.223232-0.038912-80.178176-17.78688-1.934336-6.196224c-5.238784-16.765952-12.16-33.470464-21.170176-51.072l-2.837504-5.53984 43.15648-71.907328c13.18912-21.076992 18.796544-50.066432 1.573888-67.318784l-40.589312-40.612864c-10.176512-10.195968-23.313408-12.340224-32.541696-12.340224-12.654592 0-26.18368 4.151296-36.175872 11.10016l-0.185344 0.126976-70.166528 44.7488-5.735424-2.973696c-16.590848-8.61184-33.66912-15.77984-50.751488-21.301248l-6.109184-1.968128-17.956864-81.052672-0.038912-0.223232c-4.134912-22.9632-24.236032-47.742976-49.497088-47.742976h-57.363456c-24.359936 0-40.87808 24.455168-46.444544 48.69632l-19.949568 79.949824-5.955584 1.898496c-18.361344 5.851136-36.545536 13.50144-54.048768 22.744064l-5.755904 3.033088-71.87968-45.80864-0.18432-0.126976c-9.997312-6.948864-23.519232-11.10016-36.169728-11.10016-9.224192 0-22.360064 2.144256-32.556032 12.34432l-40.559616 40.580096c-17.22368 17.238016-11.620352 46.236672 1.57696 67.32288l45.169664 75.324416-2.725888 5.500928c-8.358912 16.843776-14.761984 32.463872-19.570688 47.742976l-1.941504 6.176768-80.140288 17.78176-0.218112 0.038912c-22.935552 4.141056-47.691776 24.241152-47.691776 49.492992v57.399296c0 24.372224 24.444928 40.904704 48.672768 46.480384l80.763904 20.211712 1.922048 5.890048c4.72576 14.462976 10.698752 28.924928 18.266112 44.224512l2.715648 5.491712-45.231104 75.38176c-13.18912 21.056512-18.788352 50.031616-1.57184 67.278848l40.599552 40.594432c10.169344 10.186752 23.308288 12.324864 32.535552 12.324864 12.654592 0 26.184704-4.141056 36.192256-11.071488l0.175104-0.115712 71.983104-45.9264 5.758976 3.038208c17.733632 9.355264 36.021248 17.043456 54.354944 22.854656l5.967872 1.891328 19.922944 79.75936c5.567488 24.241152 22.085632 48.70144 46.445568 48.70144h57.371648c25.26208 0 45.341696-24.766464 49.46432-47.714304l0.037888-0.224256 17.982464-81.226752 6.109184-1.973248c16.868352-5.4528 33.7408-12.53376 50.148352-21.03808l5.735424-2.9696 70.336512 44.827648 0.180224 0.120832c9.997312 6.939648 23.512064 11.075584 36.161536 11.075584 9.229312 0 22.375424-2.139136 32.575488-12.34432l40.580096-40.580096c17.222656-17.257472 11.625472-46.227456-1.569792-67.279872l-43.169792-72.008704 2.809856-5.525504c7.979008-15.726592 14.670848-31.750144 19.87584-47.617024l1.93024-5.879808 80.754688-20.1728c24.226816-5.574656 48.671744-22.10816 48.671744-46.480384v-57.399296c0.001024-25.250816-24.7552-45.350912-47.689728-49.491968" fill="" p-id="3123"></path></svg>