<svg class="icon" viewBox="0 0 1024 1024" xmlns="http://www.w3.org/2000/svg" width="48" height="48"><path d="M512.374 682.245c-94.026 0-170.522-76.373-170.522-170.245 0-93.892 76.496-170.279 170.522-170.279 45.476 0 88.276 17.729 120.52 49.916 32.255 32.2 50.014 74.948 49.993 120.363.001 93.872-76.493 170.245-170.513 170.245M912.04 436.1l-.223-.039-80.178-17.787-1.935-6.196c-5.239-16.766-12.16-33.47-21.17-51.072l-2.837-5.54 43.156-71.907c13.19-21.077 18.797-50.067 1.574-67.319l-40.59-40.613c-10.176-10.196-23.313-12.34-32.541-12.34-12.655 0-26.184 4.151-36.176 11.1l-.185.127-70.167 44.749-5.735-2.974c-16.591-8.612-33.67-15.78-50.752-21.301l-6.109-1.968-17.957-81.053-.039-.223C586.041 88.78 565.94 64 540.68 64h-57.363c-24.36 0-40.878 24.455-46.445 48.696l-19.95 79.95-5.955 1.899c-18.361 5.85-36.546 13.501-54.049 22.744l-5.756 3.033-71.88-45.809-.184-.127c-9.997-6.949-23.519-11.1-36.17-11.1-9.224 0-22.36 2.144-32.555 12.344l-40.56 40.58c-17.224 17.238-11.62 46.237 1.577 67.323l45.17 75.325-2.726 5.5c-8.36 16.844-14.762 32.465-19.571 47.744l-1.941 6.176-80.14 17.782-.219.04c-22.935 4.14-47.692 24.24-47.692 49.492v57.4c0 24.372 24.445 40.904 48.673 46.48l80.764 20.211 1.922 5.89c4.726 14.463 10.699 28.925 18.266 44.225l2.716 5.492-45.231 75.381c-13.19 21.057-18.789 50.032-1.572 67.28l40.6 40.594c10.169 10.187 23.308 12.325 32.535 12.325 12.655 0 26.185-4.141 36.192-11.072l.175-.116 71.983-45.926 5.76 3.038c17.733 9.356 36.02 17.044 54.354 22.855l5.968 1.891 19.923 79.76C442.866 935.54 459.384 960 483.744 960h57.371c25.262 0 45.342-24.766 49.465-47.714l.038-.225 17.982-81.226 6.11-1.974c16.868-5.452 33.74-12.533 50.148-21.038l5.735-2.97 70.337 44.828.18.121c9.997 6.94 23.512 11.076 36.161 11.076 9.23 0 22.376-2.14 32.576-12.344l40.58-40.58c17.223-17.258 11.625-46.228-1.57-67.28l-43.17-72.01 2.81-5.525c7.98-15.726 14.671-31.75 19.876-47.617l1.93-5.88 80.755-20.172c24.227-5.575 48.672-22.108 48.672-46.48v-57.4c0-25.25-24.756-45.35-47.69-49.492"/></svg>