<svg t="1604902411545" class="icon" viewBox="0 0 1024 1024" version="1.1" xmlns="http://www.w3.org/2000/svg" p-id="16316" width="200" height="200"><path d="M0 512.040743a511.992517 511.992517 0 1 1 511.992517 511.959257A511.992517 511.992517 0 0 1 0 512.040743z m194.599728-92.161314a4.257181 4.257181 0 0 0 0 1.130813v2.16185l0.232815 1.363628v0.798222l0.332592 1.363628v0.698444l0.332592 1.29711a4.489995 4.489995 0 0 1 0.166296 0.731703 3.325923 3.325923 0 0 0 0.46563 1.197332l0.332592 0.897999 0.39911 1.130813 0.332593 0.897999 0.465629 1.031036 0.399111 1.130814s0.232815 0.565407 0.465629 0.698444l1.031036 1.164073a2.261627 2.261627 0 0 0 0.465629 0.698443l0.631925 1.263851a2.261627 2.261627 0 0 0 0.399111 0.565407l0.798221 1.26385 0.465629 0.698444 0.86474 1.130814 0.565407 0.731703 0.731703 0.897999 0.798222 0.897999 0.565406 0.798221 1.596443 1.596443 1.662961 1.529925 0.731703 0.698443 0.86474 0.731703a3.85807 3.85807 0 0 0 1.031036 0.731703l0.631926 0.565407 1.197332 0.897999 0.698443 0.399111c0.465629 0.166296 0.731703 0.565407 1.130814 0.731703a2.394664 2.394664 0 0 1 0.698444 0.465629l1.130813 0.698444a1.995554 1.995554 0 0 1 0.731703 0.465629l1.197333 0.565407a0.997777 0.997777 0 0 1 0.731702 0.332592 4.756069 4.756069 0 0 0 1.130814 0.465629l0.897999 0.465629 1.031036 0.332593a9.01325 9.01325 0 0 0 1.130814 0.39911l0.798221 0.332592 1.263851 0.399111c0.232815 0 0.565407 0 0.731703 0.232815l1.29711 0.332592 0.731703 0.232815 1.430146 0.332592h0.731703a6.385771 6.385771 0 0 0 1.463406 0.232814h0.798222a5.288217 5.288217 0 0 0 1.363628 0h547.513369a44.700399 44.700399 0 0 0 0-89.367538H346.993499l28.270342-28.436638a44.66714 44.66714 0 1 0-63.192529-62.959714l-104.433967 104.966116-1.529925 1.69622-0.631925 0.698444-0.798222 0.897999a5.986661 5.986661 0 0 0-0.798221 0.964517l-0.565407 0.698444-0.798221 1.130814-0.465629 0.698444-0.798222 1.26385a1.995554 1.995554 0 0 1-0.465629 0.565407l-0.565407 1.263851a2.261627 2.261627 0 0 1-0.465629 0.698443 4.257181 4.257181 0 0 0-0.565407 1.130814 2.860293 2.860293 0 0 1-0.465629 0.798221 3.85807 3.85807 0 0 0-0.399111 1.130814l-0.465629 0.897999-0.332592 0.964518-0.399111 1.130813-0.332592 0.86474-0.465629 1.197332a3.991107 3.991107 0 0 0-0.166296 0.798222l-0.332593 1.26385a1.430147 1.430147 0 0 0 0 0.698444l-0.332592 1.430147v0.731703a6.319253 6.319253 0 0 0-0.232814 1.430146v0.897999a4.656292 4.656292 0 0 0 0 1.263851v4.423477a13.769319 13.769319 0 0 0 0 2.16185 3.691774 3.691774 0 0 0 0 1.130813v0.166296z m624.674773 215.752595a5.986661 5.986661 0 0 0 0.731703-0.964517l0.565406-0.698444 0.86474-1.130814 0.465629-0.698443c0.166296-0.465629 0.565407-0.798221 0.731703-1.197332a2.261627 2.261627 0 0 1 0.46563-0.631926l0.631925-1.26385a2.294887 2.294887 0 0 1 0.465629-0.698444l0.565407-1.130814a1.69622 1.69622 0 0 1 0.399111-0.798221 3.991107 3.991107 0 0 0 0.465629-1.130814l0.465629-0.897999 0.332592-0.964517 0.332592-1.130814 0.332593-0.86474 0.465629-1.130814 0.232814-0.864739 0.332593-1.263851a1.430147 1.430147 0 0 0 0-0.698444l0.332592-1.430146v-0.731703a6.385771 6.385771 0 0 0 0.232814-1.430147v-0.897999a3.325923 3.325923 0 0 0 0.166297-1.263851v-4.423477a13.769319 13.769319 0 0 0 0-2.161849v-1.130814a3.525478 3.525478 0 0 0 0-1.031036v-2.16185l-0.232815-1.430146v-0.798222l-0.332592-1.363628a1.430147 1.430147 0 0 1 0-0.698444l-0.332592-1.29711-0.232815-0.731703a3.924589 3.924589 0 0 0-0.465629-1.197332l-0.332592-0.897999-0.332593-1.130813-0.332592-0.897999-0.465629-1.031036-0.465629-1.130814s-0.232815-0.565407-0.465629-0.698444l-0.565407-1.130814a2.261627 2.261627 0 0 0-0.399111-0.698443l-0.631925-1.263851-0.465629-0.565407c-0.232815-0.498888-0.565407-0.86474-0.731703-1.26385L821.502869 582.084671l-0.86474-1.130813-0.565407-0.731703-0.731703-0.897999-0.798221-0.897999-0.698444-0.798222a20.354646 20.354646 0 0 0-1.463406-1.596443l-1.69622-1.529924-0.698444-0.631925-0.897999-0.798222a5.986661 5.986661 0 0 0-0.964518-0.731703l-0.631925-0.565407-1.197332-0.897999-0.698444-0.39911c-0.465629-0.166296-0.798221-0.565407-1.197332-0.731703a2.261627 2.261627 0 0 1-0.631925-0.465629l-1.263851-0.698444a2.394664 2.394664 0 0 1-0.698444-0.465629l-1.130813-0.565407a1.69622 1.69622 0 0 1-0.798222-0.332592 3.957848 3.957848 0 0 0-1.130813-0.46563l-0.897999-0.465629-0.964518-0.332592a9.01325 9.01325 0 0 0-1.164073-0.498888l-0.86474-0.332593-1.130813-0.39911-0.86474-0.232815-1.263851-0.332592-0.798221-0.232815-1.363629-0.332592h-0.798221a6.385771 6.385771 0 0 0-1.430147-0.232815h-0.864739a5.321476 5.321476 0 0 0-1.29711 0H241.495236a44.700399 44.700399 0 1 0 0 89.367539H676.825238l-28.33686 28.436638a44.66714 44.66714 0 1 0 63.192528 63.192528l104.600264-104.500486 1.463406-1.696221 0.698444-0.698443 0.897999-1.031036z" p-id="16317"></path></svg>