<svg class="icon" viewBox="0 0 1024 1024" xmlns="http://www.w3.org/2000/svg" width="200" height="200"><path d="M0 512.04A511.993 511.993 0 11511.993 1024 511.993 511.993 0 010 512.04zm194.6-92.16a4.257 4.257 0 000 1.13v2.162l.233 1.364v.798l.332 1.364v.698l.333 1.297a4.49 4.49 0 01.166.732 3.326 3.326 0 00.466 1.197l.332.898.4 1.131.332.898.466 1.031.399 1.13s.233.566.465.7l1.031 1.163a2.262 2.262 0 00.466.699l.632 1.264a2.262 2.262 0 00.399.565l.798 1.264.466.698.865 1.131.565.732.732.898.798.898.565.798 1.597 1.597 1.663 1.53.731.698.865.732a3.858 3.858 0 001.031.731l.632.566 1.197.898.699.399c.466.166.732.565 1.13.732a2.395 2.395 0 01.7.465l1.13.699a1.996 1.996 0 01.732.465l1.197.566a.998.998 0 01.732.332 4.756 4.756 0 001.13.466l.899.465 1.03.333a9.013 9.013 0 001.131.4l.799.332 1.263.399c.233 0 .566 0 .732.233l1.297.332.732.233 1.43.333h.732a6.386 6.386 0 001.463.232h.798a5.288 5.288 0 001.364 0H782.19a44.7 44.7 0 000-89.367H346.993l28.27-28.437a44.667 44.667 0 10-63.192-62.96L207.637 384.892l-1.53 1.696-.632.698-.798.898a5.987 5.987 0 00-.798.965l-.565.698-.799 1.131-.465.699-.798 1.263a1.996 1.996 0 01-.466.566l-.565 1.264a2.262 2.262 0 01-.466.698 4.257 4.257 0 00-.565 1.131 2.86 2.86 0 01-.466.798 3.858 3.858 0 00-.4 1.131l-.465.898-.332.965-.4 1.13-.332.865-.466 1.197a3.991 3.991 0 00-.166.799l-.333 1.263a1.43 1.43 0 000 .699l-.332 1.43v.732a6.32 6.32 0 00-.233 1.43v.898a4.656 4.656 0 000 1.264v4.423a13.77 13.77 0 000 2.162 3.692 3.692 0 000 1.13v.167zm624.675 215.752a5.987 5.987 0 00.731-.964l.566-.699.864-1.13.466-.7c.166-.465.565-.797.732-1.197a2.262 2.262 0 01.465-.631l.632-1.264a2.295 2.295 0 01.466-.699l.565-1.13a1.696 1.696 0 01.4-.799 3.991 3.991 0 00.465-1.13l.466-.899.332-.964.333-1.13.332-.866.466-1.13.233-.865.332-1.264a1.43 1.43 0 000-.699l.333-1.43v-.731a6.386 6.386 0 00.233-1.43v-.899a3.326 3.326 0 00.166-1.263v-4.424a13.77 13.77 0 000-2.162v-1.13a3.525 3.525 0 000-1.032v-2.161l-.233-1.43v-.799l-.332-1.363a1.43 1.43 0 010-.699l-.333-1.297-.233-.732a3.925 3.925 0 00-.465-1.197l-.333-.898-.332-1.13-.333-.899-.466-1.03-.465-1.132s-.233-.565-.466-.698l-.565-1.13a2.262 2.262 0 00-.4-.7l-.631-1.263-.466-.566c-.233-.498-.565-.864-.732-1.263l-.565-.5-.865-1.13-.565-.732-.732-.898-.798-.898-.699-.798a20.355 20.355 0 00-1.463-1.597l-1.696-1.53-.699-.631-.898-.799a5.987 5.987 0 00-.964-.731l-.632-.566-1.197-.898-.699-.399c-.466-.166-.798-.565-1.197-.732a2.262 2.262 0 01-.632-.465l-1.264-.699a2.395 2.395 0 01-.698-.465l-1.131-.566a1.696 1.696 0 01-.799-.332 3.958 3.958 0 00-1.13-.466l-.898-.465-.965-.333a9.013 9.013 0 00-1.164-.499l-.865-.333-1.13-.399-.865-.232-1.264-.333-.798-.233-1.364-.332h-.798a6.386 6.386 0 00-1.43-.233h-.865a5.321 5.321 0 00-1.297 0H241.495a44.7 44.7 0 100 89.367h435.33l-28.337 28.437a44.667 44.667 0 1063.193 63.192l104.6-104.5 1.464-1.696.698-.699.898-1.03z"/></svg>