<svg t="1603361308913" class="icon" viewBox="0 0 1024 1024" version="1.1" xmlns="http://www.w3.org/2000/svg" p-id="7536" width="200" height="200"><path d="M512 348.16c-157.696 0-286.72 143.36-286.72 179.2s129.024 179.2 286.72 179.2 286.72-143.36 286.72-179.2-129.024-179.2-286.72-179.2z m0 295.424c-64.512 0-116.224-52.224-116.224-116.224 0-64.512 52.224-116.224 116.224-116.224 64.512 0 116.224 52.224 116.224 116.224 0.512 64-51.712 116.224-116.224 116.224z" fill="#4CB7E9" p-id="7537"></path><path d="M512 0C229.376 0 0 229.376 0 512s229.376 512 512 512 512-229.376 512-512S794.624 0 512 0z m0 742.4c-177.664 0-322.56-143.36-322.56-215.04 0-53.76 145.408-215.04 322.56-215.04s322.56 161.28 322.56 215.04-144.896 215.04-322.56 215.04z" fill="#fff" p-id="7538"></path><path d="M512.512 446.464c-45.056 0-80.896 36.352-80.896 80.384s36.352 80.384 80.384 80.384 80.384-36.352 80.384-80.384c0-44.544-35.84-80.384-79.872-80.384z" fill="#fff" p-id="7539"></path></svg>