<svg t="1643528406826" class="icon" viewBox="0 0 1024 1024" version="1.1" xmlns="http://www.w3.org/2000/svg" p-id="7524" width="200" height="200"><path d="M674.56084155 651.21283366l163.2497918 163.75472277a449.48842428 449.48842428 0 0 0 116.41576157-292.85659435l-228.00662722 1.10299365a214.31065527 214.31065527 0 0 1-51.66004822 127.99887793zM726.03462635 496.09804076l228.00774928-1.10299364c-8.59504712-234.71772079-195.3297392-423.19947403-427.28941486-430.87442472l1.10299365 233.10867411c106.07589744 6.24992329 191.05465702 91.73585799 198.17979399 198.86874425zM304.35331143 510.71298707c0-113.19879027 86.81783038-205.80873986 196.70876176-213.29967128l-1.10411571-233.33869822c-238.66964716 6.57195705-430.1843524 204.42971729-430.1843524 447.78736797a449.30440499 449.30440499 0 0 0 122.89683103 309.72465483L357.71217182 652.77475346a214.54067937 214.54067937 0 0 1-53.35886039-142.06176639zM515.49300022 724.56471619a208.56566293 208.56566293 0 0 1-138.70678063-52.71591496L211.74336182 840.65956607a437.99843963 437.99843963 0 0 0 607.31525751-6.29705018L655.7628227 670.51578348a208.97970633 208.97970633 0 0 1-140.26982248 54.04893271z" p-id="7525"></path></svg>