<svg t="1604563010554" class="icon" viewBox="0 0 1024 1024" version="1.1" xmlns="http://www.w3.org/2000/svg" p-id="3609" width="200" height="200"><path d="M512 0C229.21216 0 0 229.21216 0 512S229.21216 1024 512 1024 1024 794.78784 1024 512 794.78784 0 512 0z m43.74528 36.29056S587.776 17.6128 598.95808 28.83584c11.14112 11.14112 50.21696-1.88416 150.65088 57.67168 0 0-22.1184 23.59296-26.95168 22.15936 2.8672 5.12 11.50976 20.76672 17.65376 30.43328 7.45472 11.6736 9.29792 12.4928 9.29792 12.4928l-7.41376 11.18208 7.41376 1.8432c-7.41376-1.8432-11.14112 20.48-21.9136 24.1664-10.77248 3.72736 3.31776 24.1664-0.4096 27.93472-3.6864 3.6864 1.88416 37.19168 0 56.9344-1.8432 19.6608-9.29792 2.58048-18.59584 0-9.29792-2.62144-24.1664-8.6016-25.43616-14.17216-1.26976-5.57056-4.3008-22.3232-0.57344-31.62112 3.6864-9.29792-11.18208-18.59584-18.6368-25.3952-7.41376-6.84032-37.19168 1.2288-42.76224 0s-9.29792-17.36704-9.29792-32.27648c0-14.86848 26.05056 1.88416 40.71424 0 14.62272-1.8432 16.95744-38.912 16.95744-38.912l-0.8192-31.5392c-6.06208-2.41664-7.04512-5.5296 2.6624-9.54368 0 0-31.62112-7.41376-39.07584 9.33888-7.41376 16.71168-11.14112 15.11424-12.98432 31.70304-1.88416 16.62976-31.00672 2.00704-37.84704 0-6.79936-1.96608-25.3952-24.28928-25.3952-24.28928 5.57056-13.02528 9.29792-22.3232 9.29792-22.3232l-9.74848-22.3232V36.29056zM262.26688 209.26464c3.15392-4.21888 24.1664-40.96 50.21696-29.77792s42.8032-13.02528 42.8032-13.02528 38.21568-39.03488 40.50944-33.46432l2.2528 5.57056c-2.2528-5.57056 31.62112-14.86848 35.34848 3.72736 3.72736 18.59584 26.05056 27.97568 26.05056 27.97568s-13.02528 22.24128-9.29792 38.99392c3.6864 16.75264 16.75264 20.48 9.29792 35.34848-7.45472 14.86848-22.3232 20.48-26.05056 27.89376-3.6864 7.45472-34.28352-24.1664-37.60128-35.34848-3.2768-11.14112-19.6608-22.3232-33.792-18.59584-14.17216 3.6864-51.36384 13.02528-58.81856 9.29792-7.41376-3.6864-49.64352-6.9632-40.91904-18.59584zM760.79104 756.1216c-14.86848 39.07584-50.21696 106.04544-68.8128 124.64128-18.59584 18.59584-40.96 53.94432-57.67168 66.9696-16.75264 13.02528-16.75264 37.19168-37.19168 35.34848-20.48-1.88416-44.6464-59.51488-39.07584-74.42432 5.57056-14.86848-102.31808-40.91904-102.31808-40.91904s-46.4896-5.57056-55.78752-94.86336c-1.6384-15.89248-2.74432-27.15648-3.35872-34.97984-13.96736-6.18496-68.8128-28.8768-102.68672-20.80768-39.03488 9.29792-48.3328-12.41088-81.83808-17.36704L154.4192 646.3488s-94.86336-109.7728-83.68128-128.32768c11.14112-18.6368 11.14112-68.8128 13.02528-79.99488 1.8432-11.18208-14.86848-81.83808-13.9264-91.136 0.90112-9.33888-14.00832-44.6464-14.00832-44.6464s35.34848-74.42432 40.96-74.42432c5.57056 0 26.0096 63.24224 46.4896 65.1264 20.48 1.8432 76.26752-1.88416 84.62336-11.18208 8.3968-9.29792 15.81056-20.48 25.10848-20.48 9.29792 0 9.29792-5.57056 26.05056 1.88416 16.75264 7.45472 35.34848 18.59584 42.76224 29.77792 7.45472 11.14112-5.57056 33.46432 33.50528 33.46432s39.07584-9.29792 44.6464 16.75264c5.57056 26.05056 12.20608 83.68128-4.13696 87.40864-16.34304 3.72736-64.7168 60.37504-60.98944 78.56128 3.72736 18.18624 3.72736 46.08-3.6864 62.83264-7.45472 16.71168-13.02528 22.28224-40.96 20.48-27.8528-1.88416-51.48672-16.7936-59.22816 5.5296-7.70048 22.3232-22.528 72.62208 3.44064 67.54304 0 0 40.96-12.45184 55.78752 0 14.90944 12.45184 109.7728 53.37088 109.7728 53.37088s85.56544-92.9792 219.50464-33.46432l22.3232 14.86848 37.19168-8.06912s48.3328-14.25408 65.1264-10.52672l16.71168 3.6864v-7.3728s14.86848 39.03488 0 78.06976z m217.62048-212.04992s-11.14112-16.71168-11.14112-34.32448-13.02528-15.89248-13.02528-38.21568-16.75264-14.86848-27.89376-29.73696c-11.18208-14.90944-16.75264 5.57056-26.05056 7.41376-9.29792 1.88416-7.45472 16.7936-16.75264 34.4064-9.29792 17.69472-33.46432 28.83584-40.91904 25.55904-7.41376-3.31776-35.34848-28.34432-37.19168-33.91488-1.88416-5.57056-39.07584-37.19168-38.05184-44.6464 1.06496-7.41376-10.32192-46.4896-17.73568-65.1264-7.45472-18.55488 0-91.87328 0-91.87328-11.18208-6.30784 102.27712-53.20704 87.40864-58.7776-14.86848-5.57056-22.3232-66.9696-22.3232-66.9696l54.14912 27.93472c54.14912 27.8528 122.55232 249.2416 122.55232 249.2416v63.24224l-13.02528 55.78752z" p-id="3610"></path></svg>