<svg class="icon" viewBox="0 0 1024 1024" xmlns="http://www.w3.org/2000/svg" width="200" height="200"><path d="M512 0C229.212 0 0 229.212 0 512s229.212 512 512 512 512-229.212 512-512S794.788 0 512 0zm43.745 36.29s32.031-18.677 43.213-7.454c11.141 11.141 50.217-1.884 150.651 57.672 0 0-22.118 23.592-26.952 22.159 2.867 5.12 11.51 20.767 17.654 30.433 7.455 11.674 9.298 12.493 9.298 12.493l-7.414 11.182 7.414 1.843c-7.414-1.843-11.141 20.48-21.914 24.167-10.772 3.727 3.318 24.166-.41 27.934-3.686 3.687 1.885 37.192 0 56.935-1.842 19.66-9.297 2.58-18.595 0-9.298-2.622-24.166-8.602-25.436-14.172-1.27-5.571-4.301-22.324-.574-31.622 3.687-9.297-11.182-18.595-18.636-25.395-7.414-6.84-37.192 1.23-42.763 0s-9.298-17.367-9.298-32.276c0-14.869 26.05 1.884 40.715 0 14.622-1.843 16.957-38.912 16.957-38.912l-.82-31.54c-6.061-2.416-7.044-5.529 2.663-9.543 0 0-31.62-7.414-39.076 9.339-7.413 16.711-11.14 15.114-12.984 31.703-1.884 16.63-31.007 2.007-37.847 0-6.8-1.966-25.395-24.29-25.395-24.29 5.57-13.025 9.298-22.323 9.298-22.323L555.745 62.3V36.29zM262.267 209.266c3.154-4.22 24.166-40.96 50.217-29.778s42.803-13.026 42.803-13.026 38.216-39.034 40.51-33.464l2.252 5.57c-2.253-5.57 31.621-14.868 35.349 3.728 3.727 18.596 26.05 27.976 26.05 27.976s-13.025 22.241-9.298 38.994c3.687 16.752 16.753 20.48 9.298 35.348-7.454 14.869-22.323 20.48-26.05 27.894-3.687 7.455-34.284-24.167-37.602-35.349-3.276-11.14-19.66-22.323-33.792-18.595-14.172 3.686-51.363 13.025-58.818 9.297-7.414-3.686-49.644-6.963-40.92-18.595zM760.79 756.122c-14.868 39.075-50.217 106.045-68.813 124.64-18.596 18.597-40.96 53.945-57.671 66.97-16.753 13.026-16.753 37.192-37.192 35.349-20.48-1.884-44.647-59.515-39.076-74.424 5.57-14.869-102.318-40.92-102.318-40.92s-46.49-5.57-55.788-94.863c-1.638-15.892-2.744-27.156-3.358-34.98-13.968-6.185-68.813-28.876-102.687-20.807-39.035 9.298-48.333-12.411-81.838-17.367l-57.63-53.371S59.555 536.576 70.737 518.02c11.141-18.637 11.141-68.813 13.025-79.995 1.843-11.182-14.868-81.838-13.926-91.136.9-9.339-14.009-44.646-14.009-44.646s35.349-74.424 40.96-74.424c5.571 0 26.01 63.242 46.49 65.126 20.48 1.843 76.268-1.884 84.623-11.182 8.397-9.298 15.811-20.48 25.109-20.48 9.298 0 9.298-5.57 26.05 1.884 16.753 7.455 35.349 18.596 42.763 29.778 7.454 11.141-5.57 33.464 33.505 33.464s39.076-9.298 44.646 16.753c5.571 26.05 12.206 83.681-4.137 87.409-16.343 3.727-64.716 60.375-60.989 78.56 3.727 18.187 3.727 46.08-3.686 62.833-7.455 16.712-13.026 22.283-40.96 20.48-27.853-1.884-51.487-16.793-59.229 5.53-7.7 22.323-22.528 72.622 3.441 67.543 0 0 40.96-12.452 55.788 0 14.909 12.452 109.772 53.371 109.772 53.371s85.566-92.98 219.505-33.464l22.323 14.868 37.192-8.069s48.333-14.254 65.126-10.527l16.712 3.687v-7.373s14.868 39.035 0 78.07zm217.62-212.05s-11.14-16.712-11.14-34.325-13.026-15.892-13.026-38.215-16.753-14.869-27.894-29.737c-11.182-14.91-16.752 5.57-26.05 7.413-9.298 1.884-7.455 16.794-16.753 34.407-9.298 17.694-33.464 28.836-40.919 25.559-7.414-3.318-35.348-28.345-37.192-33.915-1.884-5.57-39.075-37.192-38.051-44.647 1.065-7.413-10.322-46.49-17.736-65.126-7.455-18.555 0-91.873 0-91.873-11.182-6.308 102.277-53.207 87.409-58.778-14.869-5.57-22.324-66.97-22.324-66.97l54.15 27.935c54.149 27.853 122.552 249.242 122.552 249.242v63.242l-13.025 55.788z"/></svg>