<svg class="icon" width="200" height="200" viewBox="0 0 1024 1024" xmlns="http://www.w3.org/2000/svg"><path fill="#28C445" d="M337.387 341.827c-17.757 0-35.514 11.838-35.514 29.595s17.757 29.595 35.514 29.595 29.596-11.838 29.596-29.595c0-18.497-11.838-29.595-29.596-29.595zM577.85 513.48c-11.838 0-22.937 12.578-22.937 23.676 0 12.578 11.838 23.676 22.937 23.676 17.757 0 29.595-11.838 29.595-23.676s-11.838-23.676-29.595-23.676zm-76.208-112.463c17.757 0 29.595-12.578 29.595-29.595 0-17.757-11.838-29.595-29.595-29.595s-35.515 11.838-35.515 29.595 17.757 29.595 35.515 29.595zM706.59 513.48c-11.839 0-22.937 12.578-22.937 23.676 0 12.578 11.838 23.676 22.937 23.676 17.757 0 29.595-11.838 29.595-23.676s-11.838-23.676-29.595-23.676z"/><path fill="#28C445" d="M510.52 2.96C228.624 2.96 0 231.584 0 513.48S228.624 1024 510.52 1024s510.52-228.624 510.52-510.52S792.416 2.96 510.52 2.96zm-96.925 641.48c-29.595 0-53.271-5.92-81.387-12.579l-81.387 41.434 22.936-71.769c-58.45-41.434-93.965-95.445-93.965-159.815 0-113.202 105.803-201.988 233.803-201.988 114.682 0 216.047 71.028 236.023 166.474-7.398-.74-14.797-1.48-22.196-1.48-110.983 1.48-198.29 85.086-198.29 188.67 0 17.018 2.96 33.295 7.4 49.573-7.4.74-15.538 1.48-22.937 1.48zm346.266 82.866l17.757 59.191-63.63-35.514c-22.936 5.919-46.612 11.838-70.289 11.838-111.722 0-199.768-76.948-199.768-172.393-.74-94.705 87.306-171.653 198.289-171.653 105.803 0 199.029 77.687 199.029 172.393 0 53.271-34.775 100.624-81.388 136.138z"/></svg>