<svg class="icon" width="200" height="200" viewBox="0 0 1024 1024" xmlns="http://www.w3.org/2000/svg"><path fill="#06B4FD" d="M230.771 576.557c-12.614 9.646-25.229 23.744-28.94 42.295-5.193 24.487-.741 55.652 22.262 80.14 28.939 28.938 72.719 37.1 92.011 38.585 51.2 3.71 106.11-22.261 147.664-50.458 16.325-11.13 43.78-34.133 70.493-69.75-59.362-30.424-133.565-64.557-212.22-61.59-41.554 1.485-70.493 9.647-91.27 20.778zm752.417 135.79C1009.16 650.76 1024 583.236 1024 512 1024 230.029 793.971 0 512 0S0 230.029 0 512s230.029 512 512 512c170.667 0 321.299-83.85 414.794-212.22-88.301-43.038-232.997-115.757-322.782-158.794-42.296 48.973-105.369 97.205-176.603 117.982-44.522 13.357-85.334 18.55-126.887 9.646-42.296-8.904-72.72-28.197-90.528-47.49-8.904-10.388-19.293-22.26-27.455-37.843.742.742.742 2.226.742 2.968 0 0-4.452-7.42-7.42-19.292-1.484-5.937-2.968-11.873-3.71-17.81-.742-4.451-.742-8.904 0-12.614-.742-7.42 0-15.582 1.484-23.745 4.452-20.776 12.614-43.78 35.617-65.298 48.974-48.232 115.015-50.458 149.148-50.458 50.458.742 138.017 22.26 212.22 48.974 20.777-43.78 34.134-89.786 42.296-121.693H304.974v-33.391h158.052v-66.783H272.325v-34.133h190.701v-66.783c0-8.904 2.226-16.324 16.325-16.324h74.945v83.107h207.026v33.391H554.296v66.783h165.472s-17.067 92.753-68.267 184.023c115.015 40.811 277.52 104.626 331.687 126.145zm0 0"/></svg>